  0
SECTION
  2
HEADER
  9
$ACADVER
  1
AC1027
  9
$ACADMAINTVER
 70
105
  9
$DWGCODEPAGE
  3
ANSI_1252
  9
$LASTSAVEDBY
  1
ezdxf
  9
$REQUIREDVERSIONS
160
0
  9
$INSBASE
 10
0.0
 20
0.0
 30
0.0
  9
$EXTMIN
 10
-100
 20
-100
 30
-100
  9
$EXTMAX
 10
100
 20
100
 30
100
  9
$LIMMIN
 10
0.0
 20
0.0
  9
$LIMMAX
 10
420.0
 20
297.0
  9
$ORTHOMODE
 70
0
  9
$REGENMODE
 70
1
  9
$FILLMODE
 70
1
  9
$QTEXTMODE
 70
0
  9
$MIRRTEXT
 70
1
  9
$LTSCALE
 40
1.0
  9
$ATTMODE
 70
1
  9
$TEXTSIZE
 40
2.5
  9
$TRACEWID
 40
1.0
  9
$TEXTSTYLE
  7
Standard
  9
$CLAYER
  8
0
  9
$CELTYPE
  6
ByLayer
  9
$CECOLOR
 62
256
  9
$CELTSCALE
 40
1.0
  9
$DISPSILH
 70
0
  9
$DIMSCALE
 40
1.0
  9
$DIMASZ
 40
2.5
  9
$DIMEXO
 40
0.625
  9
$DIMDLI
 40
3.75
  9
$DIMRND
 40
0.0
  9
$DIMDLE
 40
0.0
  9
$DIMEXE
 40
1.25
  9
$DIMTP
 40
0.0
  9
$DIMTM
 40
0.0
  9
$DIMTXT
 40
2.5
  9
$DIMCEN
 40
2.5
  9
$DIMTSZ
 40
0.0
  9
$DIMTOL
 70
0
  9
$DIMLIM
 70
0
  9
$DIMTIH
 70
0
  9
$DIMTOH
 70
0
  9
$DIMSE1
 70
0
  9
$DIMSE2
 70
0
  9
$DIMTAD
 70
1
  9
$DIMZIN
 70
8
  9
$DIMBLK
  1

  9
$DIMASO
 70
1
  9
$DIMSHO
 70
1
  9
$DIMPOST
  1

  9
$DIMAPOST
  1

  9
$DIMALT
 70
0
  9
$DIMALTD
 70
3
  9
$DIMALTF
 40
0.03937007874
  9
$DIMLFAC
 40
1.0
  9
$DIMTOFL
 70
1
  9
$DIMTVP
 40
0.0
  9
$DIMTIX
 70
0
  9
$DIMSOXD
 70
0
  9
$DIMSAH
 70
0
  9
$DIMBLK1
  1

  9
$DIMBLK2
  1

  9
$DIMSTYLE
  2
ISO-25
  9
$DIMCLRD
 70
0
  9
$DIMCLRE
 70
0
  9
$DIMCLRT
 70
0
  9
$DIMTFAC
 40
1.0
  9
$DIMGAP
 40
0.625
  9
$DIMJUST
 70
0
  9
$DIMSD1
 70
0
  9
$DIMSD2
 70
0
  9
$DIMTOLJ
 70
0
  9
$DIMTZIN
 70
8
  9
$DIMALTZ
 70
0
  9
$DIMALTTZ
 70
0
  9
$DIMUPT
 70
0
  9
$DIMDEC
 70
2
  9
$DIMTDEC
 70
2
  9
$DIMALTU
 70
2
  9
$DIMALTTD
 70
3
  9
$DIMTXSTY
  7
Standard
  9
$DIMAUNIT
 70
0
  9
$DIMADEC
 70
0
  9
$DIMALTRND
 40
0.0
  9
$DIMAZIN
 70
0
  9
$DIMDSEP
 70
44
  9
$DIMATFIT
 70
3
  9
$DIMFRAC
 70
0
  9
$DIMLDRBLK
  1

  9
$DIMLUNIT
 70
2
  9
$DIMLWD
 70
-2
  9
$DIMLWE
 70
-2
  9
$DIMTMOVE
 70
0
  9
$DIMFXL
 40
1.0
  9
$DIMFXLON
 70
0
  9
$DIMJOGANG
 40
0.785398163397
  9
$DIMTFILL
 70
0
  9
$DIMTFILLCLR
 70
0
  9
$DIMARCSYM
 70
0
  9
$DIMLTYPE
  6

  9
$DIMLTEX1
  6

  9
$DIMLTEX2
  6

  9
$DIMTXTDIRECTION
 70
0
  9
$LUNITS
 70
2
  9
$LUPREC
 70
4
  9
$SKETCHINC
 40
1.0
  9
$FILLETRAD
 40
10.0
  9
$AUNITS
 70
0
  9
$AUPREC
 70
2
  9
$MENU
  1
.
  9
$ELEVATION
 40
0.0
  9
$PELEVATION
 40
0.0
  9
$THICKNESS
 40
0.0
  9
$LIMCHECK
 70
0
  9
$CHAMFERA
 40
0.0
  9
$CHAMFERB
 40
0.0
  9
$CHAMFERC
 40
0.0
  9
$CHAMFERD
 40
0.0
  9
$SKPOLY
 70
0
  9
$TDCREATE
 40
2459209.7166203703
  9
$TDUCREATE
 40
2458532.153996898
  9
$TDUPDATE
 40
2459209.7166203703
  9
$TDUUPDATE
 40
2458532.1544311
  9
$TDINDWG
 40
0.0
  9
$TDUSRTIMER
 40
0.0
  9
$USRTIMER
 70
1
  9
$ANGBASE
 50
0.0
  9
$ANGDIR
 70
0
  9
$PDMODE
 70
0
  9
$PDSIZE
 40
0.0
  9
$PLINEWID
 40
0.0
  9
$SPLFRAME
 70
0
  9
$SPLINETYPE
 70
6
  9
$SPLINESEGS
 70
8
  9
$HANDSEED
  5
219
  9
$SURFTAB1
 70
6
  9
$SURFTAB2
 70
6
  9
$SURFTYPE
 70
6
  9
$SURFU
 70
6
  9
$SURFV
 70
6
  9
$UCSBASE
  2

  9
$UCSNAME
  2

  9
$UCSORG
 10
0.0
 20
0.0
 30
0.0
  9
$UCSXDIR
 10
1.0
 20
0.0
 30
0.0
  9
$UCSYDIR
 10
0.0
 20
1.0
 30
0.0
  9
$UCSORTHOREF
  2

  9
$UCSORTHOVIEW
 70
0
  9
$UCSORGTOP
 10
0.0
 20
0.0
 30
0.0
  9
$UCSORGBOTTOM
 10
0.0
 20
0.0
 30
0.0
  9
$UCSORGLEFT
 10
0.0
 20
0.0
 30
0.0
  9
$UCSORGRIGHT
 10
0.0
 20
0.0
 30
0.0
  9
$UCSORGFRONT
 10
0.0
 20
0.0
 30
0.0
  9
$UCSORGBACK
 10
0.0
 20
0.0
 30
0.0
  9
$PUCSBASE
  2

  9
$PUCSNAME
  2

  9
$PUCSORG
 10
0.0
 20
0.0
 30
0.0
  9
$PUCSXDIR
 10
1.0
 20
0.0
 30
0.0
  9
$PUCSYDIR
 10
0.0
 20
1.0
 30
0.0
  9
$PUCSORTHOREF
  2

  9
$PUCSORTHOVIEW
 70
0
  9
$PUCSORGTOP
 10
0.0
 20
0.0
 30
0.0
  9
$PUCSORGBOTTOM
 10
0.0
 20
0.0
 30
0.0
  9
$PUCSORGLEFT
 10
0.0
 20
0.0
 30
0.0
  9
$PUCSORGRIGHT
 10
0.0
 20
0.0
 30
0.0
  9
$PUCSORGFRONT
 10
0.0
 20
0.0
 30
0.0
  9
$PUCSORGBACK
 10
0.0
 20
0.0
 30
0.0
  9
$USERI1
 70
0
  9
$USERI2
 70
0
  9
$USERI3
 70
0
  9
$USERI4
 70
0
  9
$USERI5
 70
0
  9
$USERR1
 40
0.0
  9
$USERR2
 40
0.0
  9
$USERR3
 40
0.0
  9
$USERR4
 40
0.0
  9
$USERR5
 40
0.0
  9
$WORLDVIEW
 70
1
  9
$SHADEDGE
 70
3
  9
$SHADEDIF
 70
70
  9
$TILEMODE
 70
1
  9
$MAXACTVP
 70
64
  9
$PINSBASE
 10
0.0
 20
0.0
 30
0.0
  9
$PLIMCHECK
 70
0
  9
$PEXTMIN
 10
1e+20
 20
1e+20
 30
1e+20
  9
$PEXTMAX
 10
-1e+20
 20
-1e+20
 30
-1e+20
  9
$PLIMMIN
 10
0.0
 20
0.0
  9
$PLIMMAX
 10
420.0
 20
297.0
  9
$UNITMODE
 70
0
  9
$VISRETAIN
 70
1
  9
$PLINEGEN
 70
0
  9
$PSLTSCALE
 70
1
  9
$TREEDEPTH
 70
3020
  9
$CMLSTYLE
  2
Standard
  9
$CMLJUST
 70
0
  9
$CMLSCALE
 40
20.0
  9
$PROXYGRAPHICS
 70
1
  9
$MEASUREMENT
 70
1
  9
$CELWEIGHT
370
-1
  9
$ENDCAPS
280
0
  9
$JOINSTYLE
280
0
  9
$LWDISPLAY
290
0
  9
$INSUNITS
 70
6
  9
$HYPERLINKBASE
  1

  9
$STYLESHEET
  1

  9
$XEDIT
290
1
  9
$CEPSNTYPE
380
0
  9
$PSTYLEMODE
290
1
  9
$FINGERPRINTGUID
  2
9E7F6947-4699-11EB-8EFF-0CDD242DC719
  9
$VERSIONGUID
  2
9E850AC8-4699-11EB-BBEC-0CDD242DC719
  9
$EXTNAMES
290
1
  9
$PSVPSCALE
 40
0.0
  9
$OLESTARTUP
290
0
  9
$SORTENTS
280
127
  9
$INDEXCTL
280
0
  9
$HIDETEXT
280
1
  9
$XCLIPFRAME
280
2
  9
$HALOGAP
280
0
  9
$OBSCOLOR
 70
257
  9
$OBSLTYPE
280
0
  9
$INTERSECTIONDISPLAY
280
0
  9
$INTERSECTIONCOLOR
 70
257
  9
$DIMASSOC
280
2
  9
$PROJECTNAME
  1

  9
$CAMERADISPLAY
290
0
  9
$LENSLENGTH
 40
50.0
  9
$CAMERAHEIGHT
 40
0.0
  9
$STEPSPERSEC
 40
24.0
  9
$STEPSIZE
 40
100.0
  9
$3DDWFPREC
 40
2.0
  9
$PSOLWIDTH
 40
0.005
  9
$PSOLHEIGHT
 40
0.08
  9
$LOFTANG1
 40
1.570796326795
  9
$LOFTANG2
 40
1.570796326795
  9
$LOFTMAG1
 40
0.0
  9
$LOFTMAG2
 40
0.0
  9
$LOFTPARAM
 70
7
  9
$LOFTNORMALS
280
1
  9
$LATITUDE
 40
37.795
  9
$LONGITUDE
 40
-122.394
  9
$NORTHDIRECTION
 40
0.0
  9
$TIMEZONE
 70
-8000
  9
$LIGHTGLYPHDISPLAY
280
1
  9
$TILEMODELIGHTSYNCH
280
1
  9
$CMATERIAL
347
20
  9
$SOLIDHIST
280
0
  9
$SHOWHIST
280
1
  9
$DWFFRAME
280
2
  9
$DGNFRAME
280
2
  9
$REALWORLDSCALE
290
1
  9
$INTERFERECOLOR
 62
256
  9
$CSHADOW
280
0
  9
$SHADOWPLANELOCATION
 40
0.0
  0
ENDSEC
  0
SECTION
  2
CLASSES
  0
CLASS
  1
ACDBDICTIONARYWDFLT
  2
AcDbDictionaryWithDefault
  3
ObjectDBX Classes
 90
0
 91
0
280
0
281
0
  0
CLASS
  1
SUN
  2
AcDbSun
  3
SCENEOE
 90
1153
 91
0
280
0
281
0
  0
CLASS
  1
VISUALSTYLE
  2
AcDbVisualStyle
  3
ObjectDBX Classes
 90
4095
 91
0
280
0
281
0
  0
CLASS
  1
MATERIAL
  2
AcDbMaterial
  3
ObjectDBX Classes
 90
1153
 91
0
280
0
281
0
  0
CLASS
  1
SCALE
  2
AcDbScale
  3
ObjectDBX Classes
 90
1153
 91
0
280
0
281
0
  0
CLASS
  1
TABLESTYLE
  2
AcDbTableStyle
  3
ObjectDBX Classes
 90
4095
 91
0
280
0
281
0
  0
CLASS
  1
MLEADERSTYLE
  2
AcDbMLeaderStyle
  3
ACDB_MLEADERSTYLE_CLASS
 90
4095
 91
0
280
0
281
0
  0
CLASS
  1
DICTIONARYVAR
  2
AcDbDictionaryVar
  3
ObjectDBX Classes
 90
0
 91
0
280
0
281
0
  0
CLASS
  1
CELLSTYLEMAP
  2
AcDbCellStyleMap
  3
ObjectDBX Classes
 90
1152
 91
0
280
0
281
0
  0
CLASS
  1
MENTALRAYRENDERSETTINGS
  2
AcDbMentalRayRenderSettings
  3
SCENEOE
 90
1024
 91
0
280
0
281
0
  0
CLASS
  1
ACDBDETAILVIEWSTYLE
  2
AcDbDetailViewStyle
  3
ObjectDBX Classes
 90
1025
 91
0
280
0
281
0
  0
CLASS
  1
ACDBSECTIONVIEWSTYLE
  2
AcDbSectionViewStyle
  3
ObjectDBX Classes
 90
1025
 91
0
280
0
281
0
  0
CLASS
  1
RASTERVARIABLES
  2
AcDbRasterVariables
  3
ISM
 90
0
 91
0
280
0
281
0
  0
CLASS
  1
LAYOUT
  2
AcDbLayout
  3
ObjectDBX Classes
 90
0
 91
0
280
0
281
0
  0
CLASS
  1
ACDBPLACEHOLDER
  2
AcDbPlaceHolder
  3
ObjectDBX Classes
 90
0
 91
0
280
0
281
0
  0
ENDSEC
  0
SECTION
  2
TABLES
  0
TABLE
  2
VPORT
  5
8
330
0
100
AcDbSymbolTable
 70
1
  0
VPORT
  5
23
330
8
100
AcDbSymbolTableRecord
100
AcDbViewportTableRecord
  2
*Active
 70
0
 10
0.0
 20
0.0
 11
1.0
 21
1.0
 12
70.0
 22
50.0
 13
0.0
 23
0.0
 14
0.5
 24
0.5
 15
0.5
 25
0.5
 16
0.0
 26
0.0
 36
1.0
 17
0.0
 27
0.0
 37
0.0
 40
1.0
 41
1.34
 42
50.0
 43
0.0
 44
0.0
 50
0.0
 51
0.0
 71
0
 72
1000
 73
1
 74
3
 75
0
 76
0
 77
0
 78
0
281
0
 65
0
146
0.0
  0
ENDTAB
  0
TABLE
  2
LTYPE
  5
2
330
0
100
AcDbSymbolTable
 70
3
  0
LTYPE
  5
24
330
2
100
AcDbSymbolTableRecord
100
AcDbLinetypeTableRecord
  2
ByBlock
 70
0
  3

 72
65
 73
0
 40
0.0
  0
LTYPE
  5
25
330
2
100
AcDbSymbolTableRecord
100
AcDbLinetypeTableRecord
  2
ByLayer
 70
0
  3

 72
65
 73
0
 40
0.0
  0
LTYPE
  5
26
330
2
100
AcDbSymbolTableRecord
100
AcDbLinetypeTableRecord
  2
Continuous
 70
0
  3

 72
65
 73
0
 40
0.0
  0
ENDTAB
  0
TABLE
  2
LAYER
  5
1
330
0
100
AcDbSymbolTable
 70
2
  0
LAYER
  5
27
330
1
100
AcDbSymbolTableRecord
100
AcDbLayerTableRecord
  2
0
 70
0
 62
7
  6
Continuous
370
-3
390
13
347
21
  0
LAYER
  5
28
330
1
100
AcDbSymbolTableRecord
100
AcDbLayerTableRecord
  2
Defpoints
 70
0
 62
7
  6
Continuous
290
0
370
-3
390
13
347
21
  0
ENDTAB
  0
TABLE
  2
STYLE
  5
5
330
0
100
AcDbSymbolTable
 70
1
  0
STYLE
  5
29
330
5
100
AcDbSymbolTableRecord
100
AcDbTextStyleTableRecord
  2
Standard
 70
0
 40
0.0
 41
1.0
 50
0.0
 71
0
 42
2.5
  3
txt
  4

  0
ENDTAB
  0
TABLE
  2
VIEW
  5
7
330
0
100
AcDbSymbolTable
 70
0
  0
ENDTAB
  0
TABLE
  2
UCS
  5
6
330
0
100
AcDbSymbolTable
 70
0
  0
ENDTAB
  0
TABLE
  2
APPID
  5
3
330
0
100
AcDbSymbolTable
 70
2
  0
APPID
  5
2A
330
3
100
AcDbSymbolTableRecord
100
AcDbRegAppTableRecord
  2
ACAD
 70
0
  0
APPID
  5
218
330
3
100
AcDbSymbolTableRecord
100
AcDbRegAppTableRecord
  2
HATCHBACKGROUNDCOLOR
 70
0
  0
ENDTAB
  0
TABLE
  2
DIMSTYLE
  5
4
330
0
100
AcDbSymbolTable
 70
1
100
AcDbDimStyleTable
  0
DIMSTYLE
105
2B
330
4
100
AcDbSymbolTableRecord
100
AcDbDimStyleTableRecord
  2
Standard
 70
0
 40
1.0
 41
2.5
 42
0.625
 43
3.75
 44
1.25
 45
0.0
 46
0.0
 47
0.0
 48
0.0
 49
2.5
140
2.5
141
2.5
142
0.0
143
0.03937007874
144
1.0
145
0.0
146
1.0
147
0.625
148
0.0
 69
0
 70
0
 71
0
 72
0
 73
0
 74
0
 75
0
 76
0
 77
1
 78
8
 79
0
170
0
171
3
172
1
173
0
174
0
175
0
176
0
177
0
178
0
179
0
271
0
272
2
273
2
274
3
275
0
276
0
277
2
278
44
279
0
280
0
281
0
282
0
283
0
284
8
285
0
286
0
288
0
289
3
290
0
371
-2
372
-2
  0
ENDTAB
  0
TABLE
  2
BLOCK_RECORD
  5
9
330
0
100
AcDbSymbolTable
 70
43
  0
BLOCK_RECORD
  5
17
330
9
100
AcDbSymbolTableRecord
100
AcDbBlockTableRecord
  2
*Model_Space
340
1A
 70
0
280
1
281
0
  0
BLOCK_RECORD
  5
1B
330
9
100
AcDbSymbolTableRecord
100
AcDbBlockTableRecord
  2
*Paper_Space
340
1E
 70
0
280
1
281
0
  0
BLOCK_RECORD
  5
2D
330
9
100
AcDbSymbolTableRecord
100
AcDbBlockTableRecord
  2
elevational_view_001
340
0
 70
0
280
1
281
0
  0
BLOCK_RECORD
  5
30
330
9
100
AcDbSymbolTableRecord
100
AcDbBlockTableRecord
  2
side_view_001
340
0
 70
0
280
1
281
0
  0
BLOCK_RECORD
  5
3A
330
9
100
AcDbSymbolTableRecord
100
AcDbBlockTableRecord
  2
*D1
340
0
 70
0
280
1
281
0
  0
BLOCK_RECORD
  5
3F
330
9
100
AcDbSymbolTableRecord
100
AcDbBlockTableRecord
  2
_OPEN90
340
0
 70
0
280
1
281
0
  0
BLOCK_RECORD
  5
4F
330
9
100
AcDbSymbolTableRecord
100
AcDbBlockTableRecord
  2
*D2
340
0
 70
0
280
1
281
0
  0
BLOCK_RECORD
  5
5F
330
9
100
AcDbSymbolTableRecord
100
AcDbBlockTableRecord
  2
*D3
340
0
 70
0
280
1
281
0
  0
BLOCK_RECORD
  5
6F
330
9
100
AcDbSymbolTableRecord
100
AcDbBlockTableRecord
  2
elevational_view_002
340
0
 70
0
280
1
281
0
  0
BLOCK_RECORD
  5
72
330
9
100
AcDbSymbolTableRecord
100
AcDbBlockTableRecord
  2
side_view_002
340
0
 70
0
280
1
281
0
  0
BLOCK_RECORD
  5
7C
330
9
100
AcDbSymbolTableRecord
100
AcDbBlockTableRecord
  2
*D4
340
0
 70
0
280
1
281
0
  0
BLOCK_RECORD
  5
8C
330
9
100
AcDbSymbolTableRecord
100
AcDbBlockTableRecord
  2
*D5
340
0
 70
0
280
1
281
0
  0
BLOCK_RECORD
  5
9C
330
9
100
AcDbSymbolTableRecord
100
AcDbBlockTableRecord
  2
*D6
340
0
 70
0
280
1
281
0
  0
BLOCK_RECORD
  5
AC
330
9
100
AcDbSymbolTableRecord
100
AcDbBlockTableRecord
  2
elevational_view_003
340
0
 70
0
280
1
281
0
  0
BLOCK_RECORD
  5
AF
330
9
100
AcDbSymbolTableRecord
100
AcDbBlockTableRecord
  2
side_view_003
340
0
 70
0
280
1
281
0
  0
BLOCK_RECORD
  5
B9
330
9
100
AcDbSymbolTableRecord
100
AcDbBlockTableRecord
  2
*D7
340
0
 70
0
280
1
281
0
  0
BLOCK_RECORD
  5
C9
330
9
100
AcDbSymbolTableRecord
100
AcDbBlockTableRecord
  2
*D8
340
0
 70
0
280
1
281
0
  0
BLOCK_RECORD
  5
D9
330
9
100
AcDbSymbolTableRecord
100
AcDbBlockTableRecord
  2
*D9
340
0
 70
0
280
1
281
0
  0
BLOCK_RECORD
  5
E9
330
9
100
AcDbSymbolTableRecord
100
AcDbBlockTableRecord
  2
elevational_view_004
340
0
 70
0
280
1
281
0
  0
BLOCK_RECORD
  5
EC
330
9
100
AcDbSymbolTableRecord
100
AcDbBlockTableRecord
  2
side_view_004
340
0
 70
0
280
1
281
0
  0
BLOCK_RECORD
  5
F6
330
9
100
AcDbSymbolTableRecord
100
AcDbBlockTableRecord
  2
*D10
340
0
 70
0
280
1
281
0
  0
BLOCK_RECORD
  5
106
330
9
100
AcDbSymbolTableRecord
100
AcDbBlockTableRecord
  2
*D11
340
0
 70
0
280
1
281
0
  0
BLOCK_RECORD
  5
116
330
9
100
AcDbSymbolTableRecord
100
AcDbBlockTableRecord
  2
*D12
340
0
 70
0
280
1
281
0
  0
BLOCK_RECORD
  5
126
330
9
100
AcDbSymbolTableRecord
100
AcDbBlockTableRecord
  2
elevational_view_005
340
0
 70
0
280
1
281
0
  0
BLOCK_RECORD
  5
129
330
9
100
AcDbSymbolTableRecord
100
AcDbBlockTableRecord
  2
side_view_005
340
0
 70
0
280
1
281
0
  0
BLOCK_RECORD
  5
133
330
9
100
AcDbSymbolTableRecord
100
AcDbBlockTableRecord
  2
*D13
340
0
 70
0
280
1
281
0
  0
BLOCK_RECORD
  5
143
330
9
100
AcDbSymbolTableRecord
100
AcDbBlockTableRecord
  2
*D14
340
0
 70
0
280
1
281
0
  0
BLOCK_RECORD
  5
153
330
9
100
AcDbSymbolTableRecord
100
AcDbBlockTableRecord
  2
*D15
340
0
 70
0
280
1
281
0
  0
BLOCK_RECORD
  5
163
330
9
100
AcDbSymbolTableRecord
100
AcDbBlockTableRecord
  2
elevational_view_006
340
0
 70
0
280
1
281
0
  0
BLOCK_RECORD
  5
166
330
9
100
AcDbSymbolTableRecord
100
AcDbBlockTableRecord
  2
side_view_006
340
0
 70
0
280
1
281
0
  0
BLOCK_RECORD
  5
170
330
9
100
AcDbSymbolTableRecord
100
AcDbBlockTableRecord
  2
*D16
340
0
 70
0
280
1
281
0
  0
BLOCK_RECORD
  5
180
330
9
100
AcDbSymbolTableRecord
100
AcDbBlockTableRecord
  2
*D17
340
0
 70
0
280
1
281
0
  0
BLOCK_RECORD
  5
190
330
9
100
AcDbSymbolTableRecord
100
AcDbBlockTableRecord
  2
*D18
340
0
 70
0
280
1
281
0
  0
BLOCK_RECORD
  5
1A0
330
9
100
AcDbSymbolTableRecord
100
AcDbBlockTableRecord
  2
elevational_view_007
340
0
 70
0
280
1
281
0
  0
BLOCK_RECORD
  5
1A3
330
9
100
AcDbSymbolTableRecord
100
AcDbBlockTableRecord
  2
side_view_007
340
0
 70
0
280
1
281
0
  0
BLOCK_RECORD
  5
1AD
330
9
100
AcDbSymbolTableRecord
100
AcDbBlockTableRecord
  2
*D19
340
0
 70
0
280
1
281
0
  0
BLOCK_RECORD
  5
1BD
330
9
100
AcDbSymbolTableRecord
100
AcDbBlockTableRecord
  2
*D20
340
0
 70
0
280
1
281
0
  0
BLOCK_RECORD
  5
1CD
330
9
100
AcDbSymbolTableRecord
100
AcDbBlockTableRecord
  2
*D21
340
0
 70
0
280
1
281
0
  0
BLOCK_RECORD
  5
1DD
330
9
100
AcDbSymbolTableRecord
100
AcDbBlockTableRecord
  2
elevational_view_008
340
0
 70
0
280
1
281
0
  0
BLOCK_RECORD
  5
1E0
330
9
100
AcDbSymbolTableRecord
100
AcDbBlockTableRecord
  2
side_view_008
340
0
 70
0
280
1
281
0
  0
BLOCK_RECORD
  5
1EA
330
9
100
AcDbSymbolTableRecord
100
AcDbBlockTableRecord
  2
*D22
340
0
 70
0
280
1
281
0
  0
BLOCK_RECORD
  5
1F9
330
9
100
AcDbSymbolTableRecord
100
AcDbBlockTableRecord
  2
*D23
340
0
 70
0
280
1
281
0
  0
BLOCK_RECORD
  5
209
330
9
100
AcDbSymbolTableRecord
100
AcDbBlockTableRecord
  2
*D24
340
0
 70
0
280
1
281
0
  0
ENDTAB
  0
ENDSEC
  0
SECTION
  2
BLOCKS
  0
BLOCK
  5
18
330
17
100
AcDbEntity
  8
0
100
AcDbBlockBegin
  2
*Model_Space
 70
0
 10
0.0
 20
0.0
 30
0.0
  3
*Model_Space
  1

  0
ENDBLK
  5
19
330
17
100
AcDbEntity
  8
0
100
AcDbBlockEnd
  0
BLOCK
  5
1C
330
1B
100
AcDbEntity
  8
0
100
AcDbBlockBegin
  2
*Paper_Space
 70
0
 10
0.0
 20
0.0
 30
0.0
  3
*Paper_Space
  1

  0
ENDBLK
  5
1D
330
1B
100
AcDbEntity
  8
0
100
AcDbBlockEnd
  0
BLOCK
  5
2E
330
2D
100
AcDbEntity
  8
0
100
AcDbBlockBegin
  2
elevational_view_001
 70
0
 10
0.0
 20
0.0
 30
0.0
  3
elevational_view_001
  1

  0
LWPOLYLINE
  5
33
330
2D
100
AcDbEntity
  8
0
100
AcDbPolyline
 90
5
 70
0
 10
0.0
 20
0.0
 10
0.0
 20
550.0
 10
650.0
 20
550.0
 10
650.0
 20
0.0
 10
0.0
 20
0.0
  0
ENDBLK
  5
2F
330
2D
100
AcDbEntity
  8
0
100
AcDbBlockEnd
  0
BLOCK
  5
31
330
30
100
AcDbEntity
  8
0
100
AcDbBlockBegin
  2
side_view_001
 70
0
 10
0.0
 20
0.0
 30
0.0
  3
side_view_001
  1

  0
LWPOLYLINE
  5
34
330
30
100
AcDbEntity
  8
0
100
AcDbPolyline
 90
5
 70
0
 10
0.0
 20
0.0
 10
0.0
 20
550.0
 10
18.0
 20
550.0
 10
18.0
 20
0.0
 10
0.0
 20
0.0
  0
ENDBLK
  5
32
330
30
100
AcDbEntity
  8
0
100
AcDbBlockEnd
  0
BLOCK
  5
3B
330
3A
100
AcDbEntity
  8
0
100
AcDbBlockBegin
  2
*D1
 70
1
 10
0.0
 20
0.0
 30
0.0
  3
*D1
  1

  0
LINE
  5
3D
330
3A
100
AcDbEntity
  8
0
 62
1
370
-2
100
AcDbLine
 10
-923.0
 20
0.0
 30
0.0
 11
-937.0
 21
0.0
 31
0.0
  0
LINE
  5
3E
330
3A
100
AcDbEntity
  8
0
 62
1
370
-2
100
AcDbLine
 10
-923.0
 20
550.0
 30
0.0
 11
-937.0
 21
550.0
 31
0.0
  0
INSERT
  5
44
330
3A
100
AcDbEntity
  8
0
 62
1
100
AcDbBlockReference
  2
_OPEN90
 10
-930.0
 20
0.0
 30
0.0
 41
6.0
 42
6.0
 50
270.0
  0
INSERT
  5
46
330
3A
100
AcDbEntity
  8
0
 62
1
100
AcDbBlockReference
  2
_OPEN90
 10
-930.0
 20
550.0
 30
0.0
 41
6.0
 42
6.0
 50
90.0
  0
LINE
  5
48
330
3A
100
AcDbEntity
  8
0
 62
1
370
-2
100
AcDbLine
 10
-930.0
 20
6.0
 30
0.0
 11
-930.0
 21
254.0
 31
0.0
  0
LINE
  5
49
330
3A
100
AcDbEntity
  8
0
 62
1
370
-2
100
AcDbLine
 10
-930.0
 20
296.0
 30
0.0
 11
-930.0
 21
544.0
 31
0.0
  0
MTEXT
  5
4A
330
3A
100
AcDbEntity
  8
0
100
AcDbMText
 10
-930.0
 20
275.0
 30
0.0
 40
14.0
 71
5
  1
550
 11
6.123233995736766e-17
 21
1.0
 31
0.0
  0
POINT
  5
4B
330
3A
100
AcDbEntity
  8
DEFPOINTS
100
AcDbPoint
 10
-930.0
 20
0.0
 30
0.0
  0
POINT
  5
4C
330
3A
100
AcDbEntity
  8
DEFPOINTS
100
AcDbPoint
 10
-900.0
 20
0.0
 30
0.0
  0
POINT
  5
4D
330
3A
100
AcDbEntity
  8
DEFPOINTS
100
AcDbPoint
 10
-900.0
 20
550.0
 30
0.0
  0
ENDBLK
  5
3C
330
3A
100
AcDbEntity
  8
0
100
AcDbBlockEnd
  0
BLOCK
  5
40
330
3F
100
AcDbEntity
  8
0
100
AcDbBlockBegin
  2
_OPEN90
 70
0
 10
0.0
 20
0.0
 30
0.0
  3
_OPEN90
  1

  0
LWPOLYLINE
  5
42
330
3F
100
AcDbEntity
  8
0
  6
BYBLOCK
 62
0
100
AcDbPolyline
 90
3
 70
0
 10
-0.9999999999999998
 20
0.7071067811865476
 10
0.0
 20
0.0
 10
-0.9999999999999998
 20
-0.7071067811865476
  0
LINE
  5
43
330
3F
100
AcDbEntity
  8
0
  6
BYBLOCK
 62
0
100
AcDbLine
 10
0.0
 20
0.0
 30
0.0
 11
-1.0
 21
1.2246467991473532e-16
 31
0.0
  0
ENDBLK
  5
41
330
3F
100
AcDbEntity
  8
0
100
AcDbBlockEnd
  0
BLOCK
  5
50
330
4F
100
AcDbEntity
  8
0
100
AcDbBlockBegin
  2
*D2
 70
1
 10
0.0
 20
0.0
 30
0.0
  3
*D2
  1

  0
LINE
  5
52
330
4F
100
AcDbEntity
  8
0
 62
1
370
-2
100
AcDbLine
 10
-900.0
 20
573.0
 30
0.0
 11
-900.0
 21
587.0
 31
0.0
  0
LINE
  5
53
330
4F
100
AcDbEntity
  8
0
 62
1
370
-2
100
AcDbLine
 10
-250.0
 20
573.0
 30
0.0
 11
-250.0
 21
587.0
 31
0.0
  0
INSERT
  5
54
330
4F
100
AcDbEntity
  8
0
 62
1
100
AcDbBlockReference
  2
_OPEN90
 10
-900.0
 20
580.0
 30
0.0
 41
6.0
 42
6.0
 50
180.0
  0
INSERT
  5
56
330
4F
100
AcDbEntity
  8
0
 62
1
100
AcDbBlockReference
  2
_OPEN90
 10
-250.0
 20
580.0
 30
0.0
 41
6.0
 42
6.0
  0
LINE
  5
58
330
4F
100
AcDbEntity
  8
0
 62
1
370
-2
100
AcDbLine
 10
-894.0
 20
580.0
 30
0.0
 11
-596.0
 21
580.0
 31
0.0
  0
LINE
  5
59
330
4F
100
AcDbEntity
  8
0
 62
1
370
-2
100
AcDbLine
 10
-554.0
 20
580.0
 30
0.0
 11
-256.0
 21
580.0
 31
0.0
  0
MTEXT
  5
5A
330
4F
100
AcDbEntity
  8
0
100
AcDbMText
 10
-575.0
 20
580.0
 30
0.0
 40
14.0
 71
5
  1
650
  0
POINT
  5
5B
330
4F
100
AcDbEntity
  8
DEFPOINTS
100
AcDbPoint
 10
-900.0
 20
580.0
 30
0.0
  0
POINT
  5
5C
330
4F
100
AcDbEntity
  8
DEFPOINTS
100
AcDbPoint
 10
-900.0
 20
550.0
 30
0.0
  0
POINT
  5
5D
330
4F
100
AcDbEntity
  8
DEFPOINTS
100
AcDbPoint
 10
-250.0
 20
550.0
 30
0.0
  0
ENDBLK
  5
51
330
4F
100
AcDbEntity
  8
0
100
AcDbBlockEnd
  0
BLOCK
  5
60
330
5F
100
AcDbEntity
  8
0
100
AcDbBlockBegin
  2
*D3
 70
1
 10
0.0
 20
0.0
 30
0.0
  3
*D3
  1

  0
LINE
  5
62
330
5F
100
AcDbEntity
  8
0
 62
1
370
-2
100
AcDbLine
 10
-198.0
 20
0.0
 30
0.0
 11
-212.0
 21
0.0
 31
0.0
  0
LINE
  5
63
330
5F
100
AcDbEntity
  8
0
 62
1
370
-2
100
AcDbLine
 10
-198.0
 20
550.0
 30
0.0
 11
-212.0
 21
550.0
 31
0.0
  0
INSERT
  5
64
330
5F
100
AcDbEntity
  8
0
 62
1
100
AcDbBlockReference
  2
_OPEN90
 10
-205.0
 20
0.0
 30
0.0
 41
6.0
 42
6.0
 50
270.0
  0
INSERT
  5
66
330
5F
100
AcDbEntity
  8
0
 62
1
100
AcDbBlockReference
  2
_OPEN90
 10
-205.0
 20
550.0
 30
0.0
 41
6.0
 42
6.0
 50
90.0
  0
LINE
  5
68
330
5F
100
AcDbEntity
  8
0
 62
1
370
-2
100
AcDbLine
 10
-205.0
 20
6.0
 30
0.0
 11
-205.0
 21
254.0
 31
0.0
  0
LINE
  5
69
330
5F
100
AcDbEntity
  8
0
 62
1
370
-2
100
AcDbLine
 10
-205.0
 20
296.0
 30
0.0
 11
-205.0
 21
544.0
 31
0.0
  0
MTEXT
  5
6A
330
5F
100
AcDbEntity
  8
0
100
AcDbMText
 10
-205.0
 20
275.0
 30
0.0
 40
14.0
 71
5
  1
550
 11
6.123233995736766e-17
 21
1.0
 31
0.0
  0
POINT
  5
6B
330
5F
100
AcDbEntity
  8
DEFPOINTS
100
AcDbPoint
 10
-205.0
 20
0.0
 30
0.0
  0
POINT
  5
6C
330
5F
100
AcDbEntity
  8
DEFPOINTS
100
AcDbPoint
 10
-175.0
 20
0.0
 30
0.0
  0
POINT
  5
6D
330
5F
100
AcDbEntity
  8
DEFPOINTS
100
AcDbPoint
 10
-175.0
 20
550.0
 30
0.0
  0
ENDBLK
  5
61
330
5F
100
AcDbEntity
  8
0
100
AcDbBlockEnd
  0
BLOCK
  5
70
330
6F
100
AcDbEntity
  8
0
100
AcDbBlockBegin
  2
elevational_view_002
 70
0
 10
0.0
 20
0.0
 30
0.0
  3
elevational_view_002
  1

  0
LWPOLYLINE
  5
75
330
6F
100
AcDbEntity
  8
0
100
AcDbPolyline
 90
5
 70
0
 10
0.0
 20
0.0
 10
0.0
 20
550.0
 10
650.0
 20
550.0
 10
650.0
 20
0.0
 10
0.0
 20
0.0
  0
ENDBLK
  5
71
330
6F
100
AcDbEntity
  8
0
100
AcDbBlockEnd
  0
BLOCK
  5
73
330
72
100
AcDbEntity
  8
0
100
AcDbBlockBegin
  2
side_view_002
 70
0
 10
0.0
 20
0.0
 30
0.0
  3
side_view_002
  1

  0
LWPOLYLINE
  5
76
330
72
100
AcDbEntity
  8
0
100
AcDbPolyline
 90
5
 70
0
 10
0.0
 20
0.0
 10
0.0
 20
550.0
 10
18.0
 20
550.0
 10
18.0
 20
0.0
 10
0.0
 20
0.0
  0
ENDBLK
  5
74
330
72
100
AcDbEntity
  8
0
100
AcDbBlockEnd
  0
BLOCK
  5
7D
330
7C
100
AcDbEntity
  8
0
100
AcDbBlockBegin
  2
*D4
 70
1
 10
0.0
 20
0.0
 30
0.0
  3
*D4
  1

  0
LINE
  5
7F
330
7C
100
AcDbEntity
  8
0
 62
1
370
-2
100
AcDbLine
 10
777.0
 20
0.0
 30
0.0
 11
763.0
 21
0.0
 31
0.0
  0
LINE
  5
80
330
7C
100
AcDbEntity
  8
0
 62
1
370
-2
100
AcDbLine
 10
777.0
 20
550.0
 30
0.0
 11
763.0
 21
550.0
 31
0.0
  0
INSERT
  5
81
330
7C
100
AcDbEntity
  8
0
 62
1
100
AcDbBlockReference
  2
_OPEN90
 10
770.0
 20
0.0
 30
0.0
 41
6.0
 42
6.0
 50
270.0
  0
INSERT
  5
83
330
7C
100
AcDbEntity
  8
0
 62
1
100
AcDbBlockReference
  2
_OPEN90
 10
770.0
 20
550.0
 30
0.0
 41
6.0
 42
6.0
 50
90.0
  0
LINE
  5
85
330
7C
100
AcDbEntity
  8
0
 62
1
370
-2
100
AcDbLine
 10
770.0
 20
6.0
 30
0.0
 11
770.0
 21
254.0
 31
0.0
  0
LINE
  5
86
330
7C
100
AcDbEntity
  8
0
 62
1
370
-2
100
AcDbLine
 10
770.0
 20
296.0
 30
0.0
 11
770.0
 21
544.0
 31
0.0
  0
MTEXT
  5
87
330
7C
100
AcDbEntity
  8
0
100
AcDbMText
 10
770.0
 20
275.0
 30
0.0
 40
14.0
 71
5
  1
550
 11
6.123233995736766e-17
 21
1.0
 31
0.0
  0
POINT
  5
88
330
7C
100
AcDbEntity
  8
DEFPOINTS
100
AcDbPoint
 10
770.0
 20
0.0
 30
0.0
  0
POINT
  5
89
330
7C
100
AcDbEntity
  8
DEFPOINTS
100
AcDbPoint
 10
800.0
 20
0.0
 30
0.0
  0
POINT
  5
8A
330
7C
100
AcDbEntity
  8
DEFPOINTS
100
AcDbPoint
 10
800.0
 20
550.0
 30
0.0
  0
ENDBLK
  5
7E
330
7C
100
AcDbEntity
  8
0
100
AcDbBlockEnd
  0
BLOCK
  5
8D
330
8C
100
AcDbEntity
  8
0
100
AcDbBlockBegin
  2
*D5
 70
1
 10
0.0
 20
0.0
 30
0.0
  3
*D5
  1

  0
LINE
  5
8F
330
8C
100
AcDbEntity
  8
0
 62
1
370
-2
100
AcDbLine
 10
800.0
 20
573.0
 30
0.0
 11
800.0
 21
587.0
 31
0.0
  0
LINE
  5
90
330
8C
100
AcDbEntity
  8
0
 62
1
370
-2
100
AcDbLine
 10
1450.0
 20
573.0
 30
0.0
 11
1450.0
 21
587.0
 31
0.0
  0
INSERT
  5
91
330
8C
100
AcDbEntity
  8
0
 62
1
100
AcDbBlockReference
  2
_OPEN90
 10
800.0
 20
580.0
 30
0.0
 41
6.0
 42
6.0
 50
180.0
  0
INSERT
  5
93
330
8C
100
AcDbEntity
  8
0
 62
1
100
AcDbBlockReference
  2
_OPEN90
 10
1450.0
 20
580.0
 30
0.0
 41
6.0
 42
6.0
  0
LINE
  5
95
330
8C
100
AcDbEntity
  8
0
 62
1
370
-2
100
AcDbLine
 10
806.0
 20
580.0
 30
0.0
 11
1104.0
 21
580.0
 31
0.0
  0
LINE
  5
96
330
8C
100
AcDbEntity
  8
0
 62
1
370
-2
100
AcDbLine
 10
1146.0
 20
580.0
 30
0.0
 11
1444.0
 21
580.0
 31
0.0
  0
MTEXT
  5
97
330
8C
100
AcDbEntity
  8
0
100
AcDbMText
 10
1125.0
 20
580.0
 30
0.0
 40
14.0
 71
5
  1
650
  0
POINT
  5
98
330
8C
100
AcDbEntity
  8
DEFPOINTS
100
AcDbPoint
 10
800.0
 20
580.0
 30
0.0
  0
POINT
  5
99
330
8C
100
AcDbEntity
  8
DEFPOINTS
100
AcDbPoint
 10
800.0
 20
550.0
 30
0.0
  0
POINT
  5
9A
330
8C
100
AcDbEntity
  8
DEFPOINTS
100
AcDbPoint
 10
1450.0
 20
550.0
 30
0.0
  0
ENDBLK
  5
8E
330
8C
100
AcDbEntity
  8
0
100
AcDbBlockEnd
  0
BLOCK
  5
9D
330
9C
100
AcDbEntity
  8
0
100
AcDbBlockBegin
  2
*D6
 70
1
 10
0.0
 20
0.0
 30
0.0
  3
*D6
  1

  0
LINE
  5
9F
330
9C
100
AcDbEntity
  8
0
 62
1
370
-2
100
AcDbLine
 10
1502.0
 20
0.0
 30
0.0
 11
1488.0
 21
0.0
 31
0.0
  0
LINE
  5
A0
330
9C
100
AcDbEntity
  8
0
 62
1
370
-2
100
AcDbLine
 10
1502.0
 20
550.0
 30
0.0
 11
1488.0
 21
550.0
 31
0.0
  0
INSERT
  5
A1
330
9C
100
AcDbEntity
  8
0
 62
1
100
AcDbBlockReference
  2
_OPEN90
 10
1495.0
 20
0.0
 30
0.0
 41
6.0
 42
6.0
 50
270.0
  0
INSERT
  5
A3
330
9C
100
AcDbEntity
  8
0
 62
1
100
AcDbBlockReference
  2
_OPEN90
 10
1495.0
 20
550.0
 30
0.0
 41
6.0
 42
6.0
 50
90.0
  0
LINE
  5
A5
330
9C
100
AcDbEntity
  8
0
 62
1
370
-2
100
AcDbLine
 10
1495.0
 20
6.0
 30
0.0
 11
1495.0
 21
254.0
 31
0.0
  0
LINE
  5
A6
330
9C
100
AcDbEntity
  8
0
 62
1
370
-2
100
AcDbLine
 10
1495.0
 20
296.0
 30
0.0
 11
1495.0
 21
544.0
 31
0.0
  0
MTEXT
  5
A7
330
9C
100
AcDbEntity
  8
0
100
AcDbMText
 10
1495.0
 20
275.0
 30
0.0
 40
14.0
 71
5
  1
550
 11
6.123233995736766e-17
 21
1.0
 31
0.0
  0
POINT
  5
A8
330
9C
100
AcDbEntity
  8
DEFPOINTS
100
AcDbPoint
 10
1495.0
 20
0.0
 30
0.0
  0
POINT
  5
A9
330
9C
100
AcDbEntity
  8
DEFPOINTS
100
AcDbPoint
 10
1525.0
 20
0.0
 30
0.0
  0
POINT
  5
AA
330
9C
100
AcDbEntity
  8
DEFPOINTS
100
AcDbPoint
 10
1525.0
 20
550.0
 30
0.0
  0
ENDBLK
  5
9E
330
9C
100
AcDbEntity
  8
0
100
AcDbBlockEnd
  0
BLOCK
  5
AD
330
AC
100
AcDbEntity
  8
0
100
AcDbBlockBegin
  2
elevational_view_003
 70
0
 10
0.0
 20
0.0
 30
0.0
  3
elevational_view_003
  1

  0
LWPOLYLINE
  5
B2
330
AC
100
AcDbEntity
  8
0
100
AcDbPolyline
 90
5
 70
0
 10
0.0
 20
0.0
 10
0.0
 20
550.0
 10
364.0
 20
550.0
 10
364.0
 20
0.0
 10
0.0
 20
0.0
  0
ENDBLK
  5
AE
330
AC
100
AcDbEntity
  8
0
100
AcDbBlockEnd
  0
BLOCK
  5
B0
330
AF
100
AcDbEntity
  8
0
100
AcDbBlockBegin
  2
side_view_003
 70
0
 10
0.0
 20
0.0
 30
0.0
  3
side_view_003
  1

  0
LWPOLYLINE
  5
B3
330
AF
100
AcDbEntity
  8
0
100
AcDbPolyline
 90
5
 70
0
 10
0.0
 20
0.0
 10
0.0
 20
550.0
 10
18.0
 20
550.0
 10
18.0
 20
0.0
 10
0.0
 20
0.0
  0
ENDBLK
  5
B1
330
AF
100
AcDbEntity
  8
0
100
AcDbBlockEnd
  0
BLOCK
  5
BA
330
B9
100
AcDbEntity
  8
0
100
AcDbBlockBegin
  2
*D7
 70
1
 10
0.0
 20
0.0
 30
0.0
  3
*D7
  1

  0
LINE
  5
BC
330
B9
100
AcDbEntity
  8
0
 62
1
370
-2
100
AcDbLine
 10
-23.0
 20
0.0
 30
0.0
 11
-37.0
 21
0.0
 31
0.0
  0
LINE
  5
BD
330
B9
100
AcDbEntity
  8
0
 62
1
370
-2
100
AcDbLine
 10
-23.0
 20
550.0
 30
0.0
 11
-37.0
 21
550.0
 31
0.0
  0
INSERT
  5
BE
330
B9
100
AcDbEntity
  8
0
 62
1
100
AcDbBlockReference
  2
_OPEN90
 10
-30.0
 20
0.0
 30
0.0
 41
6.0
 42
6.0
 50
270.0
  0
INSERT
  5
C0
330
B9
100
AcDbEntity
  8
0
 62
1
100
AcDbBlockReference
  2
_OPEN90
 10
-30.0
 20
550.0
 30
0.0
 41
6.0
 42
6.0
 50
90.0
  0
LINE
  5
C2
330
B9
100
AcDbEntity
  8
0
 62
1
370
-2
100
AcDbLine
 10
-30.0
 20
6.0
 30
0.0
 11
-30.0
 21
254.0
 31
0.0
  0
LINE
  5
C3
330
B9
100
AcDbEntity
  8
0
 62
1
370
-2
100
AcDbLine
 10
-30.0
 20
296.0
 30
0.0
 11
-30.0
 21
544.0
 31
0.0
  0
MTEXT
  5
C4
330
B9
100
AcDbEntity
  8
0
100
AcDbMText
 10
-30.0
 20
275.0
 30
0.0
 40
14.0
 71
5
  1
550
 11
6.123233995736766e-17
 21
1.0
 31
0.0
  0
POINT
  5
C5
330
B9
100
AcDbEntity
  8
DEFPOINTS
100
AcDbPoint
 10
-30.0
 20
0.0
 30
0.0
  0
POINT
  5
C6
330
B9
100
AcDbEntity
  8
DEFPOINTS
100
AcDbPoint
 10
0.0
 20
0.0
 30
0.0
  0
POINT
  5
C7
330
B9
100
AcDbEntity
  8
DEFPOINTS
100
AcDbPoint
 10
0.0
 20
550.0
 30
0.0
  0
ENDBLK
  5
BB
330
B9
100
AcDbEntity
  8
0
100
AcDbBlockEnd
  0
BLOCK
  5
CA
330
C9
100
AcDbEntity
  8
0
100
AcDbBlockBegin
  2
*D8
 70
1
 10
0.0
 20
0.0
 30
0.0
  3
*D8
  1

  0
LINE
  5
CC
330
C9
100
AcDbEntity
  8
0
 62
1
370
-2
100
AcDbLine
 10
0.0
 20
573.0
 30
0.0
 11
0.0
 21
587.0
 31
0.0
  0
LINE
  5
CD
330
C9
100
AcDbEntity
  8
0
 62
1
370
-2
100
AcDbLine
 10
364.0
 20
573.0
 30
0.0
 11
364.0
 21
587.0
 31
0.0
  0
INSERT
  5
CE
330
C9
100
AcDbEntity
  8
0
 62
1
100
AcDbBlockReference
  2
_OPEN90
 10
0.0
 20
580.0
 30
0.0
 41
6.0
 42
6.0
 50
180.0
  0
INSERT
  5
D0
330
C9
100
AcDbEntity
  8
0
 62
1
100
AcDbBlockReference
  2
_OPEN90
 10
364.0
 20
580.0
 30
0.0
 41
6.0
 42
6.0
  0
LINE
  5
D2
330
C9
100
AcDbEntity
  8
0
 62
1
370
-2
100
AcDbLine
 10
6.0
 20
580.0
 30
0.0
 11
161.0
 21
580.0
 31
0.0
  0
LINE
  5
D3
330
C9
100
AcDbEntity
  8
0
 62
1
370
-2
100
AcDbLine
 10
203.0
 20
580.0
 30
0.0
 11
358.0
 21
580.0
 31
0.0
  0
MTEXT
  5
D4
330
C9
100
AcDbEntity
  8
0
100
AcDbMText
 10
182.0
 20
580.0
 30
0.0
 40
14.0
 71
5
  1
364
  0
POINT
  5
D5
330
C9
100
AcDbEntity
  8
DEFPOINTS
100
AcDbPoint
 10
0.0
 20
580.0
 30
0.0
  0
POINT
  5
D6
330
C9
100
AcDbEntity
  8
DEFPOINTS
100
AcDbPoint
 10
0.0
 20
550.0
 30
0.0
  0
POINT
  5
D7
330
C9
100
AcDbEntity
  8
DEFPOINTS
100
AcDbPoint
 10
364.0
 20
550.0
 30
0.0
  0
ENDBLK
  5
CB
330
C9
100
AcDbEntity
  8
0
100
AcDbBlockEnd
  0
BLOCK
  5
DA
330
D9
100
AcDbEntity
  8
0
100
AcDbBlockBegin
  2
*D9
 70
1
 10
0.0
 20
0.0
 30
0.0
  3
*D9
  1

  0
LINE
  5
DC
330
D9
100
AcDbEntity
  8
0
 62
1
370
-2
100
AcDbLine
 10
416.0
 20
0.0
 30
0.0
 11
402.0
 21
0.0
 31
0.0
  0
LINE
  5
DD
330
D9
100
AcDbEntity
  8
0
 62
1
370
-2
100
AcDbLine
 10
416.0
 20
550.0
 30
0.0
 11
402.0
 21
550.0
 31
0.0
  0
INSERT
  5
DE
330
D9
100
AcDbEntity
  8
0
 62
1
100
AcDbBlockReference
  2
_OPEN90
 10
409.0
 20
0.0
 30
0.0
 41
6.0
 42
6.0
 50
270.0
  0
INSERT
  5
E0
330
D9
100
AcDbEntity
  8
0
 62
1
100
AcDbBlockReference
  2
_OPEN90
 10
409.0
 20
550.0
 30
0.0
 41
6.0
 42
6.0
 50
90.0
  0
LINE
  5
E2
330
D9
100
AcDbEntity
  8
0
 62
1
370
-2
100
AcDbLine
 10
409.0
 20
6.0
 30
0.0
 11
409.0
 21
254.0
 31
0.0
  0
LINE
  5
E3
330
D9
100
AcDbEntity
  8
0
 62
1
370
-2
100
AcDbLine
 10
409.0
 20
296.0
 30
0.0
 11
409.0
 21
544.0
 31
0.0
  0
MTEXT
  5
E4
330
D9
100
AcDbEntity
  8
0
100
AcDbMText
 10
409.0
 20
275.0
 30
0.0
 40
14.0
 71
5
  1
550
 11
6.123233995736766e-17
 21
1.0
 31
0.0
  0
POINT
  5
E5
330
D9
100
AcDbEntity
  8
DEFPOINTS
100
AcDbPoint
 10
409.0
 20
0.0
 30
0.0
  0
POINT
  5
E6
330
D9
100
AcDbEntity
  8
DEFPOINTS
100
AcDbPoint
 10
439.0
 20
0.0
 30
0.0
  0
POINT
  5
E7
330
D9
100
AcDbEntity
  8
DEFPOINTS
100
AcDbPoint
 10
439.0
 20
550.0
 30
0.0
  0
ENDBLK
  5
DB
330
D9
100
AcDbEntity
  8
0
100
AcDbBlockEnd
  0
BLOCK
  5
EA
330
E9
100
AcDbEntity
  8
0
100
AcDbBlockBegin
  2
elevational_view_004
 70
0
 10
0.0
 20
0.0
 30
0.0
  3
elevational_view_004
  1

  0
LWPOLYLINE
  5
EF
330
E9
100
AcDbEntity
  8
0
100
AcDbPolyline
 90
5
 70
0
 10
0.0
 20
0.0
 10
0.0
 20
374.0
 10
637.0
 20
374.0
 10
637.0
 20
0.0
 10
0.0
 20
0.0
  0
ENDBLK
  5
EB
330
E9
100
AcDbEntity
  8
0
100
AcDbBlockEnd
  0
BLOCK
  5
ED
330
EC
100
AcDbEntity
  8
0
100
AcDbBlockBegin
  2
side_view_004
 70
0
 10
0.0
 20
0.0
 30
0.0
  3
side_view_004
  1

  0
LWPOLYLINE
  5
F0
330
EC
100
AcDbEntity
  8
0
100
AcDbPolyline
 90
5
 70
0
 10
0.0
 20
0.0
 10
0.0
 20
374.0
 10
9.0
 20
374.0
 10
9.0
 20
0.0
 10
0.0
 20
0.0
  0
ENDBLK
  5
EE
330
EC
100
AcDbEntity
  8
0
100
AcDbBlockEnd
  0
BLOCK
  5
F7
330
F6
100
AcDbEntity
  8
0
100
AcDbBlockBegin
  2
*D10
 70
1
 10
0.0
 20
0.0
 30
0.0
  3
*D10
  1

  0
LINE
  5
F9
330
F6
100
AcDbEntity
  8
0
 62
1
370
-2
100
AcDbLine
 10
1677.0
 20
0.0
 30
0.0
 11
1663.0
 21
0.0
 31
0.0
  0
LINE
  5
FA
330
F6
100
AcDbEntity
  8
0
 62
1
370
-2
100
AcDbLine
 10
1677.0
 20
374.0
 30
0.0
 11
1663.0
 21
374.0
 31
0.0
  0
INSERT
  5
FB
330
F6
100
AcDbEntity
  8
0
 62
1
100
AcDbBlockReference
  2
_OPEN90
 10
1670.0
 20
0.0
 30
0.0
 41
6.0
 42
6.0
 50
270.0
  0
INSERT
  5
FD
330
F6
100
AcDbEntity
  8
0
 62
1
100
AcDbBlockReference
  2
_OPEN90
 10
1670.0
 20
374.0
 30
0.0
 41
6.0
 42
6.0
 50
90.0
  0
LINE
  5
FF
330
F6
100
AcDbEntity
  8
0
 62
1
370
-2
100
AcDbLine
 10
1670.0
 20
6.0
 30
0.0
 11
1670.0
 21
166.0
 31
0.0
  0
LINE
  5
100
330
F6
100
AcDbEntity
  8
0
 62
1
370
-2
100
AcDbLine
 10
1670.0
 20
208.0
 30
0.0
 11
1670.0
 21
368.0
 31
0.0
  0
MTEXT
  5
101
330
F6
100
AcDbEntity
  8
0
100
AcDbMText
 10
1670.0
 20
187.0
 30
0.0
 40
14.0
 71
5
  1
374
 11
6.123233995736766e-17
 21
1.0
 31
0.0
  0
POINT
  5
102
330
F6
100
AcDbEntity
  8
DEFPOINTS
100
AcDbPoint
 10
1670.0
 20
0.0
 30
0.0
  0
POINT
  5
103
330
F6
100
AcDbEntity
  8
DEFPOINTS
100
AcDbPoint
 10
1700.0
 20
0.0
 30
0.0
  0
POINT
  5
104
330
F6
100
AcDbEntity
  8
DEFPOINTS
100
AcDbPoint
 10
1700.0
 20
374.0
 30
0.0
  0
ENDBLK
  5
F8
330
F6
100
AcDbEntity
  8
0
100
AcDbBlockEnd
  0
BLOCK
  5
107
330
106
100
AcDbEntity
  8
0
100
AcDbBlockBegin
  2
*D11
 70
1
 10
0.0
 20
0.0
 30
0.0
  3
*D11
  1

  0
LINE
  5
109
330
106
100
AcDbEntity
  8
0
 62
1
370
-2
100
AcDbLine
 10
1700.0
 20
397.0
 30
0.0
 11
1700.0
 21
411.0
 31
0.0
  0
LINE
  5
10A
330
106
100
AcDbEntity
  8
0
 62
1
370
-2
100
AcDbLine
 10
2337.0
 20
397.0
 30
0.0
 11
2337.0
 21
411.0
 31
0.0
  0
INSERT
  5
10B
330
106
100
AcDbEntity
  8
0
 62
1
100
AcDbBlockReference
  2
_OPEN90
 10
1700.0
 20
404.0
 30
0.0
 41
6.0
 42
6.0
 50
180.0
  0
INSERT
  5
10D
330
106
100
AcDbEntity
  8
0
 62
1
100
AcDbBlockReference
  2
_OPEN90
 10
2337.0
 20
404.0
 30
0.0
 41
6.0
 42
6.0
  0
LINE
  5
10F
330
106
100
AcDbEntity
  8
0
 62
1
370
-2
100
AcDbLine
 10
1706.0
 20
404.0
 30
0.0
 11
1997.5
 21
404.0
 31
0.0
  0
LINE
  5
110
330
106
100
AcDbEntity
  8
0
 62
1
370
-2
100
AcDbLine
 10
2039.5
 20
404.0
 30
0.0
 11
2331.0
 21
404.0
 31
0.0
  0
MTEXT
  5
111
330
106
100
AcDbEntity
  8
0
100
AcDbMText
 10
2018.5
 20
404.0
 30
0.0
 40
14.0
 71
5
  1
637
  0
POINT
  5
112
330
106
100
AcDbEntity
  8
DEFPOINTS
100
AcDbPoint
 10
1700.0
 20
404.0
 30
0.0
  0
POINT
  5
113
330
106
100
AcDbEntity
  8
DEFPOINTS
100
AcDbPoint
 10
1700.0
 20
374.0
 30
0.0
  0
POINT
  5
114
330
106
100
AcDbEntity
  8
DEFPOINTS
100
AcDbPoint
 10
2337.0
 20
374.0
 30
0.0
  0
ENDBLK
  5
108
330
106
100
AcDbEntity
  8
0
100
AcDbBlockEnd
  0
BLOCK
  5
117
330
116
100
AcDbEntity
  8
0
100
AcDbBlockBegin
  2
*D12
 70
1
 10
0.0
 20
0.0
 30
0.0
  3
*D12
  1

  0
LINE
  5
119
330
116
100
AcDbEntity
  8
0
 62
1
370
-2
100
AcDbLine
 10
2389.0
 20
0.0
 30
0.0
 11
2375.0
 21
0.0
 31
0.0
  0
LINE
  5
11A
330
116
100
AcDbEntity
  8
0
 62
1
370
-2
100
AcDbLine
 10
2389.0
 20
374.0
 30
0.0
 11
2375.0
 21
374.0
 31
0.0
  0
INSERT
  5
11B
330
116
100
AcDbEntity
  8
0
 62
1
100
AcDbBlockReference
  2
_OPEN90
 10
2382.0
 20
0.0
 30
0.0
 41
6.0
 42
6.0
 50
270.0
  0
INSERT
  5
11D
330
116
100
AcDbEntity
  8
0
 62
1
100
AcDbBlockReference
  2
_OPEN90
 10
2382.0
 20
374.0
 30
0.0
 41
6.0
 42
6.0
 50
90.0
  0
LINE
  5
11F
330
116
100
AcDbEntity
  8
0
 62
1
370
-2
100
AcDbLine
 10
2382.0
 20
6.0
 30
0.0
 11
2382.0
 21
166.0
 31
0.0
  0
LINE
  5
120
330
116
100
AcDbEntity
  8
0
 62
1
370
-2
100
AcDbLine
 10
2382.0
 20
208.0
 30
0.0
 11
2382.0
 21
368.0
 31
0.0
  0
MTEXT
  5
121
330
116
100
AcDbEntity
  8
0
100
AcDbMText
 10
2382.0
 20
187.0
 30
0.0
 40
14.0
 71
5
  1
374
 11
6.123233995736766e-17
 21
1.0
 31
0.0
  0
POINT
  5
122
330
116
100
AcDbEntity
  8
DEFPOINTS
100
AcDbPoint
 10
2382.0
 20
0.0
 30
0.0
  0
POINT
  5
123
330
116
100
AcDbEntity
  8
DEFPOINTS
100
AcDbPoint
 10
2412.0
 20
0.0
 30
0.0
  0
POINT
  5
124
330
116
100
AcDbEntity
  8
DEFPOINTS
100
AcDbPoint
 10
2412.0
 20
374.0
 30
0.0
  0
ENDBLK
  5
118
330
116
100
AcDbEntity
  8
0
100
AcDbBlockEnd
  0
BLOCK
  5
127
330
126
100
AcDbEntity
  8
0
100
AcDbBlockBegin
  2
elevational_view_005
 70
0
 10
0.0
 20
0.0
 30
0.0
  3
elevational_view_005
  1

  0
LWPOLYLINE
  5
12C
330
126
100
AcDbEntity
  8
0
100
AcDbPolyline
 90
5
 70
0
 10
0.0
 20
0.0
 10
0.0
 20
364.0
 10
80.0
 20
364.0
 10
80.0
 20
0.0
 10
0.0
 20
0.0
  0
ENDBLK
  5
128
330
126
100
AcDbEntity
  8
0
100
AcDbBlockEnd
  0
BLOCK
  5
12A
330
129
100
AcDbEntity
  8
0
100
AcDbBlockBegin
  2
side_view_005
 70
0
 10
0.0
 20
0.0
 30
0.0
  3
side_view_005
  1

  0
LWPOLYLINE
  5
12D
330
129
100
AcDbEntity
  8
0
100
AcDbPolyline
 90
5
 70
0
 10
0.0
 20
0.0
 10
0.0
 20
364.0
 10
18.0
 20
364.0
 10
18.0
 20
0.0
 10
0.0
 20
0.0
  0
ENDBLK
  5
12B
330
129
100
AcDbEntity
  8
0
100
AcDbBlockEnd
  0
BLOCK
  5
134
330
133
100
AcDbEntity
  8
0
100
AcDbBlockBegin
  2
*D13
 70
1
 10
0.0
 20
0.0
 30
0.0
  3
*D13
  1

  0
LINE
  5
136
330
133
100
AcDbEntity
  8
0
 62
1
370
-2
100
AcDbLine
 10
2577.0
 20
0.0
 30
0.0
 11
2563.0
 21
0.0
 31
0.0
  0
LINE
  5
137
330
133
100
AcDbEntity
  8
0
 62
1
370
-2
100
AcDbLine
 10
2577.0
 20
364.0
 30
0.0
 11
2563.0
 21
364.0
 31
0.0
  0
INSERT
  5
138
330
133
100
AcDbEntity
  8
0
 62
1
100
AcDbBlockReference
  2
_OPEN90
 10
2570.0
 20
0.0
 30
0.0
 41
6.0
 42
6.0
 50
270.0
  0
INSERT
  5
13A
330
133
100
AcDbEntity
  8
0
 62
1
100
AcDbBlockReference
  2
_OPEN90
 10
2570.0
 20
364.0
 30
0.0
 41
6.0
 42
6.0
 50
90.0
  0
LINE
  5
13C
330
133
100
AcDbEntity
  8
0
 62
1
370
-2
100
AcDbLine
 10
2570.0
 20
6.0
 30
0.0
 11
2570.0
 21
161.0
 31
0.0
  0
LINE
  5
13D
330
133
100
AcDbEntity
  8
0
 62
1
370
-2
100
AcDbLine
 10
2570.0
 20
203.0
 30
0.0
 11
2570.0
 21
358.0
 31
0.0
  0
MTEXT
  5
13E
330
133
100
AcDbEntity
  8
0
100
AcDbMText
 10
2570.0
 20
182.0
 30
0.0
 40
14.0
 71
5
  1
364
 11
6.123233995736766e-17
 21
1.0
 31
0.0
  0
POINT
  5
13F
330
133
100
AcDbEntity
  8
DEFPOINTS
100
AcDbPoint
 10
2570.0
 20
0.0
 30
0.0
  0
POINT
  5
140
330
133
100
AcDbEntity
  8
DEFPOINTS
100
AcDbPoint
 10
2600.0
 20
0.0
 30
0.0
  0
POINT
  5
141
330
133
100
AcDbEntity
  8
DEFPOINTS
100
AcDbPoint
 10
2600.0
 20
364.0
 30
0.0
  0
ENDBLK
  5
135
330
133
100
AcDbEntity
  8
0
100
AcDbBlockEnd
  0
BLOCK
  5
144
330
143
100
AcDbEntity
  8
0
100
AcDbBlockBegin
  2
*D14
 70
1
 10
0.0
 20
0.0
 30
0.0
  3
*D14
  1

  0
LINE
  5
146
330
143
100
AcDbEntity
  8
0
 62
1
370
-2
100
AcDbLine
 10
2600.0
 20
387.0
 30
0.0
 11
2600.0
 21
401.0
 31
0.0
  0
LINE
  5
147
330
143
100
AcDbEntity
  8
0
 62
1
370
-2
100
AcDbLine
 10
2680.0
 20
387.0
 30
0.0
 11
2680.0
 21
401.0
 31
0.0
  0
INSERT
  5
148
330
143
100
AcDbEntity
  8
0
 62
1
100
AcDbBlockReference
  2
_OPEN90
 10
2600.0
 20
394.0
 30
0.0
 41
6.0
 42
6.0
 50
180.0
  0
INSERT
  5
14A
330
143
100
AcDbEntity
  8
0
 62
1
100
AcDbBlockReference
  2
_OPEN90
 10
2680.0
 20
394.0
 30
0.0
 41
6.0
 42
6.0
  0
LINE
  5
14C
330
143
100
AcDbEntity
  8
0
 62
1
370
-2
100
AcDbLine
 10
2606.0
 20
394.0
 30
0.0
 11
2626.0
 21
394.0
 31
0.0
  0
LINE
  5
14D
330
143
100
AcDbEntity
  8
0
 62
1
370
-2
100
AcDbLine
 10
2654.0
 20
394.0
 30
0.0
 11
2674.0
 21
394.0
 31
0.0
  0
MTEXT
  5
14E
330
143
100
AcDbEntity
  8
0
100
AcDbMText
 10
2640.0
 20
394.0
 30
0.0
 40
14.0
 71
5
  1
80
  0
POINT
  5
14F
330
143
100
AcDbEntity
  8
DEFPOINTS
100
AcDbPoint
 10
2600.0
 20
394.0
 30
0.0
  0
POINT
  5
150
330
143
100
AcDbEntity
  8
DEFPOINTS
100
AcDbPoint
 10
2600.0
 20
364.0
 30
0.0
  0
POINT
  5
151
330
143
100
AcDbEntity
  8
DEFPOINTS
100
AcDbPoint
 10
2680.0
 20
364.0
 30
0.0
  0
ENDBLK
  5
145
330
143
100
AcDbEntity
  8
0
100
AcDbBlockEnd
  0
BLOCK
  5
154
330
153
100
AcDbEntity
  8
0
100
AcDbBlockBegin
  2
*D15
 70
1
 10
0.0
 20
0.0
 30
0.0
  3
*D15
  1

  0
LINE
  5
156
330
153
100
AcDbEntity
  8
0
 62
1
370
-2
100
AcDbLine
 10
2732.0
 20
0.0
 30
0.0
 11
2718.0
 21
0.0
 31
0.0
  0
LINE
  5
157
330
153
100
AcDbEntity
  8
0
 62
1
370
-2
100
AcDbLine
 10
2732.0
 20
364.0
 30
0.0
 11
2718.0
 21
364.0
 31
0.0
  0
INSERT
  5
158
330
153
100
AcDbEntity
  8
0
 62
1
100
AcDbBlockReference
  2
_OPEN90
 10
2725.0
 20
0.0
 30
0.0
 41
6.0
 42
6.0
 50
270.0
  0
INSERT
  5
15A
330
153
100
AcDbEntity
  8
0
 62
1
100
AcDbBlockReference
  2
_OPEN90
 10
2725.0
 20
364.0
 30
0.0
 41
6.0
 42
6.0
 50
90.0
  0
LINE
  5
15C
330
153
100
AcDbEntity
  8
0
 62
1
370
-2
100
AcDbLine
 10
2725.0
 20
6.0
 30
0.0
 11
2725.0
 21
161.0
 31
0.0
  0
LINE
  5
15D
330
153
100
AcDbEntity
  8
0
 62
1
370
-2
100
AcDbLine
 10
2725.0
 20
203.0
 30
0.0
 11
2725.0
 21
358.0
 31
0.0
  0
MTEXT
  5
15E
330
153
100
AcDbEntity
  8
0
100
AcDbMText
 10
2725.0
 20
182.0
 30
0.0
 40
14.0
 71
5
  1
364
 11
6.123233995736766e-17
 21
1.0
 31
0.0
  0
POINT
  5
15F
330
153
100
AcDbEntity
  8
DEFPOINTS
100
AcDbPoint
 10
2725.0
 20
0.0
 30
0.0
  0
POINT
  5
160
330
153
100
AcDbEntity
  8
DEFPOINTS
100
AcDbPoint
 10
2755.0
 20
0.0
 30
0.0
  0
POINT
  5
161
330
153
100
AcDbEntity
  8
DEFPOINTS
100
AcDbPoint
 10
2755.0
 20
364.0
 30
0.0
  0
ENDBLK
  5
155
330
153
100
AcDbEntity
  8
0
100
AcDbBlockEnd
  0
BLOCK
  5
164
330
163
100
AcDbEntity
  8
0
100
AcDbBlockBegin
  2
elevational_view_006
 70
0
 10
0.0
 20
0.0
 30
0.0
  3
elevational_view_006
  1

  0
LWPOLYLINE
  5
169
330
163
100
AcDbEntity
  8
0
100
AcDbPolyline
 90
5
 70
0
 10
0.0
 20
0.0
 10
0.0
 20
80.0
 10
364.0
 20
80.0
 10
364.0
 20
0.0
 10
0.0
 20
0.0
  0
ENDBLK
  5
165
330
163
100
AcDbEntity
  8
0
100
AcDbBlockEnd
  0
BLOCK
  5
167
330
166
100
AcDbEntity
  8
0
100
AcDbBlockBegin
  2
side_view_006
 70
0
 10
0.0
 20
0.0
 30
0.0
  3
side_view_006
  1

  0
LWPOLYLINE
  5
16A
330
166
100
AcDbEntity
  8
0
100
AcDbPolyline
 90
5
 70
0
 10
0.0
 20
0.0
 10
0.0
 20
80.0
 10
18.0
 20
80.0
 10
18.0
 20
0.0
 10
0.0
 20
0.0
  0
ENDBLK
  5
168
330
166
100
AcDbEntity
  8
0
100
AcDbBlockEnd
  0
BLOCK
  5
171
330
170
100
AcDbEntity
  8
0
100
AcDbBlockBegin
  2
*D16
 70
1
 10
0.0
 20
0.0
 30
0.0
  3
*D16
  1

  0
LINE
  5
173
330
170
100
AcDbEntity
  8
0
 62
1
370
-2
100
AcDbLine
 10
2977.0
 20
0.0
 30
0.0
 11
2963.0
 21
0.0
 31
0.0
  0
LINE
  5
174
330
170
100
AcDbEntity
  8
0
 62
1
370
-2
100
AcDbLine
 10
2977.0
 20
80.0
 30
0.0
 11
2963.0
 21
80.0
 31
0.0
  0
INSERT
  5
175
330
170
100
AcDbEntity
  8
0
 62
1
100
AcDbBlockReference
  2
_OPEN90
 10
2970.0
 20
0.0
 30
0.0
 41
6.0
 42
6.0
 50
270.0
  0
INSERT
  5
177
330
170
100
AcDbEntity
  8
0
 62
1
100
AcDbBlockReference
  2
_OPEN90
 10
2970.0
 20
80.0
 30
0.0
 41
6.0
 42
6.0
 50
90.0
  0
LINE
  5
179
330
170
100
AcDbEntity
  8
0
 62
1
370
-2
100
AcDbLine
 10
2970.0
 20
6.0
 30
0.0
 11
2970.0
 21
26.0
 31
0.0
  0
LINE
  5
17A
330
170
100
AcDbEntity
  8
0
 62
1
370
-2
100
AcDbLine
 10
2970.0
 20
54.0
 30
0.0
 11
2970.0
 21
74.0
 31
0.0
  0
MTEXT
  5
17B
330
170
100
AcDbEntity
  8
0
100
AcDbMText
 10
2970.0
 20
40.0
 30
0.0
 40
14.0
 71
5
  1
80
 11
6.123233995736766e-17
 21
1.0
 31
0.0
  0
POINT
  5
17C
330
170
100
AcDbEntity
  8
DEFPOINTS
100
AcDbPoint
 10
2970.0
 20
0.0
 30
0.0
  0
POINT
  5
17D
330
170
100
AcDbEntity
  8
DEFPOINTS
100
AcDbPoint
 10
3000.0
 20
0.0
 30
0.0
  0
POINT
  5
17E
330
170
100
AcDbEntity
  8
DEFPOINTS
100
AcDbPoint
 10
3000.0
 20
80.0
 30
0.0
  0
ENDBLK
  5
172
330
170
100
AcDbEntity
  8
0
100
AcDbBlockEnd
  0
BLOCK
  5
181
330
180
100
AcDbEntity
  8
0
100
AcDbBlockBegin
  2
*D17
 70
1
 10
0.0
 20
0.0
 30
0.0
  3
*D17
  1

  0
LINE
  5
183
330
180
100
AcDbEntity
  8
0
 62
1
370
-2
100
AcDbLine
 10
3000.0
 20
103.0
 30
0.0
 11
3000.0
 21
117.0
 31
0.0
  0
LINE
  5
184
330
180
100
AcDbEntity
  8
0
 62
1
370
-2
100
AcDbLine
 10
3364.0
 20
103.0
 30
0.0
 11
3364.0
 21
117.0
 31
0.0
  0
INSERT
  5
185
330
180
100
AcDbEntity
  8
0
 62
1
100
AcDbBlockReference
  2
_OPEN90
 10
3000.0
 20
110.0
 30
0.0
 41
6.0
 42
6.0
 50
180.0
  0
INSERT
  5
187
330
180
100
AcDbEntity
  8
0
 62
1
100
AcDbBlockReference
  2
_OPEN90
 10
3364.0
 20
110.0
 30
0.0
 41
6.0
 42
6.0
  0
LINE
  5
189
330
180
100
AcDbEntity
  8
0
 62
1
370
-2
100
AcDbLine
 10
3006.0
 20
110.0
 30
0.0
 11
3161.0
 21
110.0
 31
0.0
  0
LINE
  5
18A
330
180
100
AcDbEntity
  8
0
 62
1
370
-2
100
AcDbLine
 10
3203.0
 20
110.0
 30
0.0
 11
3358.0
 21
110.0
 31
0.0
  0
MTEXT
  5
18B
330
180
100
AcDbEntity
  8
0
100
AcDbMText
 10
3182.0
 20
110.0
 30
0.0
 40
14.0
 71
5
  1
364
  0
POINT
  5
18C
330
180
100
AcDbEntity
  8
DEFPOINTS
100
AcDbPoint
 10
3000.0
 20
110.0
 30
0.0
  0
POINT
  5
18D
330
180
100
AcDbEntity
  8
DEFPOINTS
100
AcDbPoint
 10
3000.0
 20
80.0
 30
0.0
  0
POINT
  5
18E
330
180
100
AcDbEntity
  8
DEFPOINTS
100
AcDbPoint
 10
3364.0
 20
80.0
 30
0.0
  0
ENDBLK
  5
182
330
180
100
AcDbEntity
  8
0
100
AcDbBlockEnd
  0
BLOCK
  5
191
330
190
100
AcDbEntity
  8
0
100
AcDbBlockBegin
  2
*D18
 70
1
 10
0.0
 20
0.0
 30
0.0
  3
*D18
  1

  0
LINE
  5
193
330
190
100
AcDbEntity
  8
0
 62
1
370
-2
100
AcDbLine
 10
3416.0
 20
0.0
 30
0.0
 11
3402.0
 21
0.0
 31
0.0
  0
LINE
  5
194
330
190
100
AcDbEntity
  8
0
 62
1
370
-2
100
AcDbLine
 10
3416.0
 20
80.0
 30
0.0
 11
3402.0
 21
80.0
 31
0.0
  0
INSERT
  5
195
330
190
100
AcDbEntity
  8
0
 62
1
100
AcDbBlockReference
  2
_OPEN90
 10
3409.0
 20
0.0
 30
0.0
 41
6.0
 42
6.0
 50
270.0
  0
INSERT
  5
197
330
190
100
AcDbEntity
  8
0
 62
1
100
AcDbBlockReference
  2
_OPEN90
 10
3409.0
 20
80.0
 30
0.0
 41
6.0
 42
6.0
 50
90.0
  0
LINE
  5
199
330
190
100
AcDbEntity
  8
0
 62
1
370
-2
100
AcDbLine
 10
3409.0
 20
6.0
 30
0.0
 11
3409.0
 21
26.0
 31
0.0
  0
LINE
  5
19A
330
190
100
AcDbEntity
  8
0
 62
1
370
-2
100
AcDbLine
 10
3409.0
 20
54.0
 30
0.0
 11
3409.0
 21
74.0
 31
0.0
  0
MTEXT
  5
19B
330
190
100
AcDbEntity
  8
0
100
AcDbMText
 10
3409.0
 20
40.0
 30
0.0
 40
14.0
 71
5
  1
80
 11
6.123233995736766e-17
 21
1.0
 31
0.0
  0
POINT
  5
19C
330
190
100
AcDbEntity
  8
DEFPOINTS
100
AcDbPoint
 10
3409.0
 20
0.0
 30
0.0
  0
POINT
  5
19D
330
190
100
AcDbEntity
  8
DEFPOINTS
100
AcDbPoint
 10
3439.0
 20
0.0
 30
0.0
  0
POINT
  5
19E
330
190
100
AcDbEntity
  8
DEFPOINTS
100
AcDbPoint
 10
3439.0
 20
80.0
 30
0.0
  0
ENDBLK
  5
192
330
190
100
AcDbEntity
  8
0
100
AcDbBlockEnd
  0
BLOCK
  5
1A1
330
1A0
100
AcDbEntity
  8
0
100
AcDbBlockBegin
  2
elevational_view_007
 70
0
 10
0.0
 20
0.0
 30
0.0
  3
elevational_view_007
  1

  0
LWPOLYLINE
  5
1A6
330
1A0
100
AcDbEntity
  8
0
100
AcDbPolyline
 90
5
 70
0
 10
0.0
 20
0.0
 10
0.0
 20
518.0
 10
364.0
 20
518.0
 10
364.0
 20
0.0
 10
0.0
 20
0.0
  0
ENDBLK
  5
1A2
330
1A0
100
AcDbEntity
  8
0
100
AcDbBlockEnd
  0
BLOCK
  5
1A4
330
1A3
100
AcDbEntity
  8
0
100
AcDbBlockBegin
  2
side_view_007
 70
0
 10
0.0
 20
0.0
 30
0.0
  3
side_view_007
  1

  0
LWPOLYLINE
  5
1A7
330
1A3
100
AcDbEntity
  8
0
100
AcDbPolyline
 90
5
 70
0
 10
0.0
 20
0.0
 10
0.0
 20
518.0
 10
18.0
 20
518.0
 10
18.0
 20
0.0
 10
0.0
 20
0.0
  0
ENDBLK
  5
1A5
330
1A3
100
AcDbEntity
  8
0
100
AcDbBlockEnd
  0
BLOCK
  5
1AE
330
1AD
100
AcDbEntity
  8
0
100
AcDbBlockBegin
  2
*D19
 70
1
 10
0.0
 20
0.0
 30
0.0
  3
*D19
  1

  0
LINE
  5
1B0
330
1AD
100
AcDbEntity
  8
0
 62
1
370
-2
100
AcDbLine
 10
3677.0
 20
0.0
 30
0.0
 11
3663.0
 21
0.0
 31
0.0
  0
LINE
  5
1B1
330
1AD
100
AcDbEntity
  8
0
 62
1
370
-2
100
AcDbLine
 10
3677.0
 20
518.0
 30
0.0
 11
3663.0
 21
518.0
 31
0.0
  0
INSERT
  5
1B2
330
1AD
100
AcDbEntity
  8
0
 62
1
100
AcDbBlockReference
  2
_OPEN90
 10
3670.0
 20
0.0
 30
0.0
 41
6.0
 42
6.0
 50
270.0
  0
INSERT
  5
1B4
330
1AD
100
AcDbEntity
  8
0
 62
1
100
AcDbBlockReference
  2
_OPEN90
 10
3670.0
 20
518.0
 30
0.0
 41
6.0
 42
6.0
 50
90.0
  0
LINE
  5
1B6
330
1AD
100
AcDbEntity
  8
0
 62
1
370
-2
100
AcDbLine
 10
3670.0
 20
6.0
 30
0.0
 11
3670.0
 21
238.0
 31
0.0
  0
LINE
  5
1B7
330
1AD
100
AcDbEntity
  8
0
 62
1
370
-2
100
AcDbLine
 10
3670.0
 20
280.0
 30
0.0
 11
3670.0
 21
512.0
 31
0.0
  0
MTEXT
  5
1B8
330
1AD
100
AcDbEntity
  8
0
100
AcDbMText
 10
3670.0
 20
259.0
 30
0.0
 40
14.0
 71
5
  1
518
 11
6.123233995736766e-17
 21
1.0
 31
0.0
  0
POINT
  5
1B9
330
1AD
100
AcDbEntity
  8
DEFPOINTS
100
AcDbPoint
 10
3670.0
 20
0.0
 30
0.0
  0
POINT
  5
1BA
330
1AD
100
AcDbEntity
  8
DEFPOINTS
100
AcDbPoint
 10
3700.0
 20
0.0
 30
0.0
  0
POINT
  5
1BB
330
1AD
100
AcDbEntity
  8
DEFPOINTS
100
AcDbPoint
 10
3700.0
 20
518.0
 30
0.0
  0
ENDBLK
  5
1AF
330
1AD
100
AcDbEntity
  8
0
100
AcDbBlockEnd
  0
BLOCK
  5
1BE
330
1BD
100
AcDbEntity
  8
0
100
AcDbBlockBegin
  2
*D20
 70
1
 10
0.0
 20
0.0
 30
0.0
  3
*D20
  1

  0
LINE
  5
1C0
330
1BD
100
AcDbEntity
  8
0
 62
1
370
-2
100
AcDbLine
 10
3700.0
 20
541.0
 30
0.0
 11
3700.0
 21
555.0
 31
0.0
  0
LINE
  5
1C1
330
1BD
100
AcDbEntity
  8
0
 62
1
370
-2
100
AcDbLine
 10
4064.0
 20
541.0
 30
0.0
 11
4064.0
 21
555.0
 31
0.0
  0
INSERT
  5
1C2
330
1BD
100
AcDbEntity
  8
0
 62
1
100
AcDbBlockReference
  2
_OPEN90
 10
3700.0
 20
548.0
 30
0.0
 41
6.0
 42
6.0
 50
180.0
  0
INSERT
  5
1C4
330
1BD
100
AcDbEntity
  8
0
 62
1
100
AcDbBlockReference
  2
_OPEN90
 10
4064.0
 20
548.0
 30
0.0
 41
6.0
 42
6.0
  0
LINE
  5
1C6
330
1BD
100
AcDbEntity
  8
0
 62
1
370
-2
100
AcDbLine
 10
3706.0
 20
548.0
 30
0.0
 11
3861.0
 21
548.0
 31
0.0
  0
LINE
  5
1C7
330
1BD
100
AcDbEntity
  8
0
 62
1
370
-2
100
AcDbLine
 10
3903.0
 20
548.0
 30
0.0
 11
4058.0
 21
548.0
 31
0.0
  0
MTEXT
  5
1C8
330
1BD
100
AcDbEntity
  8
0
100
AcDbMText
 10
3882.0
 20
548.0
 30
0.0
 40
14.0
 71
5
  1
364
  0
POINT
  5
1C9
330
1BD
100
AcDbEntity
  8
DEFPOINTS
100
AcDbPoint
 10
3700.0
 20
548.0
 30
0.0
  0
POINT
  5
1CA
330
1BD
100
AcDbEntity
  8
DEFPOINTS
100
AcDbPoint
 10
3700.0
 20
518.0
 30
0.0
  0
POINT
  5
1CB
330
1BD
100
AcDbEntity
  8
DEFPOINTS
100
AcDbPoint
 10
4064.0
 20
518.0
 30
0.0
  0
ENDBLK
  5
1BF
330
1BD
100
AcDbEntity
  8
0
100
AcDbBlockEnd
  0
BLOCK
  5
1CE
330
1CD
100
AcDbEntity
  8
0
100
AcDbBlockBegin
  2
*D21
 70
1
 10
0.0
 20
0.0
 30
0.0
  3
*D21
  1

  0
LINE
  5
1D0
330
1CD
100
AcDbEntity
  8
0
 62
1
370
-2
100
AcDbLine
 10
4116.0
 20
0.0
 30
0.0
 11
4102.0
 21
0.0
 31
0.0
  0
LINE
  5
1D1
330
1CD
100
AcDbEntity
  8
0
 62
1
370
-2
100
AcDbLine
 10
4116.0
 20
518.0
 30
0.0
 11
4102.0
 21
518.0
 31
0.0
  0
INSERT
  5
1D2
330
1CD
100
AcDbEntity
  8
0
 62
1
100
AcDbBlockReference
  2
_OPEN90
 10
4109.0
 20
0.0
 30
0.0
 41
6.0
 42
6.0
 50
270.0
  0
INSERT
  5
1D4
330
1CD
100
AcDbEntity
  8
0
 62
1
100
AcDbBlockReference
  2
_OPEN90
 10
4109.0
 20
518.0
 30
0.0
 41
6.0
 42
6.0
 50
90.0
  0
LINE
  5
1D6
330
1CD
100
AcDbEntity
  8
0
 62
1
370
-2
100
AcDbLine
 10
4109.0
 20
6.0
 30
0.0
 11
4109.0
 21
238.0
 31
0.0
  0
LINE
  5
1D7
330
1CD
100
AcDbEntity
  8
0
 62
1
370
-2
100
AcDbLine
 10
4109.0
 20
280.0
 30
0.0
 11
4109.0
 21
512.0
 31
0.0
  0
MTEXT
  5
1D8
330
1CD
100
AcDbEntity
  8
0
100
AcDbMText
 10
4109.0
 20
259.0
 30
0.0
 40
14.0
 71
5
  1
518
 11
6.123233995736766e-17
 21
1.0
 31
0.0
  0
POINT
  5
1D9
330
1CD
100
AcDbEntity
  8
DEFPOINTS
100
AcDbPoint
 10
4109.0
 20
0.0
 30
0.0
  0
POINT
  5
1DA
330
1CD
100
AcDbEntity
  8
DEFPOINTS
100
AcDbPoint
 10
4139.0
 20
0.0
 30
0.0
  0
POINT
  5
1DB
330
1CD
100
AcDbEntity
  8
DEFPOINTS
100
AcDbPoint
 10
4139.0
 20
518.0
 30
0.0
  0
ENDBLK
  5
1CF
330
1CD
100
AcDbEntity
  8
0
100
AcDbBlockEnd
  0
BLOCK
  5
1DE
330
1DD
100
AcDbEntity
  8
0
100
AcDbBlockBegin
  2
elevational_view_008
 70
0
 10
0.0
 20
0.0
 30
0.0
  3
elevational_view_008
  1

  0
LWPOLYLINE
  5
1E3
330
1DD
100
AcDbEntity
  8
0
100
AcDbPolyline
 90
5
 70
0
 10
0.0
 20
0.0
 10
0.0
 20
642.0
 10
397.0
 20
642.0
 10
397.0
 20
0.0
 10
0.0
 20
0.0
  0
ENDBLK
  5
1DF
330
1DD
100
AcDbEntity
  8
0
100
AcDbBlockEnd
  0
BLOCK
  5
1E1
330
1E0
100
AcDbEntity
  8
0
100
AcDbBlockBegin
  2
side_view_008
 70
0
 10
0.0
 20
0.0
 30
0.0
  3
side_view_008
  1

  0
LWPOLYLINE
  5
1E4
330
1E0
100
AcDbEntity
  8
0
100
AcDbPolyline
 90
5
 70
0
 10
0.0
 20
0.0
 10
0.0
 20
18.0
 10
642.0
 20
18.0
 10
642.0
 20
0.0
 10
0.0
 20
0.0
  0
ENDBLK
  5
1E2
330
1E0
100
AcDbEntity
  8
0
100
AcDbBlockEnd
  0
BLOCK
  5
1EB
330
1EA
100
AcDbEntity
  8
0
100
AcDbBlockBegin
  2
*D22
 70
1
 10
0.0
 20
0.0
 30
0.0
  3
*D22
  1

  0
LINE
  5
1ED
330
1EA
100
AcDbEntity
  8
0
 62
1
370
-2
100
AcDbLine
 10
4577.0
 20
0.0
 30
0.0
 11
4563.0
 21
0.0
 31
0.0
  0
LINE
  5
1EE
330
1EA
100
AcDbEntity
  8
0
 62
1
370
-2
100
AcDbLine
 10
4577.0
 20
18.0
 30
0.0
 11
4563.0
 21
18.0
 31
0.0
  0
INSERT
  5
1EF
330
1EA
100
AcDbEntity
  8
0
 62
1
100
AcDbBlockReference
  2
_OPEN90
 10
4570.0
 20
0.0
 30
0.0
 41
6.0
 42
6.0
 50
270.0
  0
INSERT
  5
1F1
330
1EA
100
AcDbEntity
  8
0
 62
1
100
AcDbBlockReference
  2
_OPEN90
 10
4570.0
 20
18.0
 30
0.0
 41
6.0
 42
6.0
 50
90.0
  0
LINE
  5
1F3
330
1EA
100
AcDbEntity
  8
0
 62
1
370
-2
100
AcDbLine
 10
4570.0
 20
6.0
 30
0.0
 11
4570.0
 21
12.0
 31
0.0
  0
MTEXT
  5
1F4
330
1EA
100
AcDbEntity
  8
0
100
AcDbMText
 10
4555.375
 20
9.0
 30
0.0
 40
14.0
 71
5
  1
18
 11
6.123233995736766e-17
 21
1.0
 31
0.0
  0
POINT
  5
1F5
330
1EA
100
AcDbEntity
  8
DEFPOINTS
100
AcDbPoint
 10
4570.0
 20
0.0
 30
0.0
  0
POINT
  5
1F6
330
1EA
100
AcDbEntity
  8
DEFPOINTS
100
AcDbPoint
 10
4600.0
 20
0.0
 30
0.0
  0
POINT
  5
1F7
330
1EA
100
AcDbEntity
  8
DEFPOINTS
100
AcDbPoint
 10
4600.0
 20
18.0
 30
0.0
  0
ENDBLK
  5
1EC
330
1EA
100
AcDbEntity
  8
0
100
AcDbBlockEnd
  0
BLOCK
  5
1FA
330
1F9
100
AcDbEntity
  8
0
100
AcDbBlockBegin
  2
*D23
 70
1
 10
0.0
 20
0.0
 30
0.0
  3
*D23
  1

  0
LINE
  5
1FC
330
1F9
100
AcDbEntity
  8
0
 62
1
370
-2
100
AcDbLine
 10
4600.0
 20
41.0
 30
0.0
 11
4600.0
 21
55.0
 31
0.0
  0
LINE
  5
1FD
330
1F9
100
AcDbEntity
  8
0
 62
1
370
-2
100
AcDbLine
 10
4997.0
 20
41.0
 30
0.0
 11
4997.0
 21
55.0
 31
0.0
  0
INSERT
  5
1FE
330
1F9
100
AcDbEntity
  8
0
 62
1
100
AcDbBlockReference
  2
_OPEN90
 10
4600.0
 20
48.0
 30
0.0
 41
6.0
 42
6.0
 50
180.0
  0
INSERT
  5
200
330
1F9
100
AcDbEntity
  8
0
 62
1
100
AcDbBlockReference
  2
_OPEN90
 10
4997.0
 20
48.0
 30
0.0
 41
6.0
 42
6.0
  0
LINE
  5
202
330
1F9
100
AcDbEntity
  8
0
 62
1
370
-2
100
AcDbLine
 10
4606.0
 20
48.0
 30
0.0
 11
4777.5
 21
48.0
 31
0.0
  0
LINE
  5
203
330
1F9
100
AcDbEntity
  8
0
 62
1
370
-2
100
AcDbLine
 10
4819.5
 20
48.0
 30
0.0
 11
4991.0
 21
48.0
 31
0.0
  0
MTEXT
  5
204
330
1F9
100
AcDbEntity
  8
0
100
AcDbMText
 10
4798.5
 20
48.0
 30
0.0
 40
14.0
 71
5
  1
397
  0
POINT
  5
205
330
1F9
100
AcDbEntity
  8
DEFPOINTS
100
AcDbPoint
 10
4600.0
 20
48.0
 30
0.0
  0
POINT
  5
206
330
1F9
100
AcDbEntity
  8
DEFPOINTS
100
AcDbPoint
 10
4600.0
 20
18.0
 30
0.0
  0
POINT
  5
207
330
1F9
100
AcDbEntity
  8
DEFPOINTS
100
AcDbPoint
 10
4997.0
 20
18.0
 30
0.0
  0
ENDBLK
  5
1FB
330
1F9
100
AcDbEntity
  8
0
100
AcDbBlockEnd
  0
BLOCK
  5
20A
330
209
100
AcDbEntity
  8
0
100
AcDbBlockBegin
  2
*D24
 70
1
 10
0.0
 20
0.0
 30
0.0
  3
*D24
  1

  0
LINE
  5
20C
330
209
100
AcDbEntity
  8
0
 62
1
370
-2
100
AcDbLine
 10
5049.0
 20
0.0
 30
0.0
 11
5035.0
 21
0.0
 31
0.0
  0
LINE
  5
20D
330
209
100
AcDbEntity
  8
0
 62
1
370
-2
100
AcDbLine
 10
5049.0
 20
18.0
 30
0.0
 11
5035.0
 21
18.0
 31
0.0
  0
INSERT
  5
20E
330
209
100
AcDbEntity
  8
0
 62
1
100
AcDbBlockReference
  2
_OPEN90
 10
5042.0
 20
0.0
 30
0.0
 41
6.0
 42
6.0
 50
270.0
  0
INSERT
  5
210
330
209
100
AcDbEntity
  8
0
 62
1
100
AcDbBlockReference
  2
_OPEN90
 10
5042.0
 20
18.0
 30
0.0
 41
6.0
 42
6.0
 50
90.0
  0
LINE
  5
212
330
209
100
AcDbEntity
  8
0
 62
1
370
-2
100
AcDbLine
 10
5042.0
 20
6.0
 30
0.0
 11
5042.0
 21
12.0
 31
0.0
  0
MTEXT
  5
213
330
209
100
AcDbEntity
  8
0
100
AcDbMText
 10
5027.375
 20
9.0
 30
0.0
 40
14.0
 71
5
  1
18
 11
6.123233995736766e-17
 21
1.0
 31
0.0
  0
POINT
  5
214
330
209
100
AcDbEntity
  8
DEFPOINTS
100
AcDbPoint
 10
5042.0
 20
0.0
 30
0.0
  0
POINT
  5
215
330
209
100
AcDbEntity
  8
DEFPOINTS
100
AcDbPoint
 10
5072.0
 20
0.0
 30
0.0
  0
POINT
  5
216
330
209
100
AcDbEntity
  8
DEFPOINTS
100
AcDbPoint
 10
5072.0
 20
18.0
 30
0.0
  0
ENDBLK
  5
20B
330
209
100
AcDbEntity
  8
0
100
AcDbBlockEnd
  0
ENDSEC
  0
SECTION
  2
ENTITIES
  0
INSERT
  5
35
330
17
100
AcDbEntity
  8
0
100
AcDbBlockReference
  2
elevational_view_001
 10
-900.0
 20
0.0
 30
0.0
  0
INSERT
  5
37
330
17
100
AcDbEntity
  8
0
100
AcDbBlockReference
  2
side_view_001
 10
-175.0
 20
0.0
 30
0.0
  0
DIMENSION
  5
39
330
17
100
AcDbEntity
  8
0
100
AcDbDimension
280
0
  2
*D1
  3
Standard
 10
-930.0
 20
0.0
 30
0.0
 11
-930.0
 21
275.0
 31
0.0
 70
32
 71
5
  1
<>
100
AcDbAlignedDimension
 13
-900.0
 23
0.0
 33
0.0
 14
-900.0
 24
550.0
 34
0.0
 50
90.0
100
AcDbRotatedDimension
1001
ACAD
1000
DSTYLE
1002
{
1070
176
1070
1
1070
177
1070
1
1070
77
1070
0
1070
290
1070
1
1070
44
1040
7.0
1070
49
1040
7.0
1070
140
1040
14.0
1070
41
1040
6.0
1070
173
1070
0
1070
142
1040
0.0
1070
342
1005
3F
1002
}
  0
DIMENSION
  5
4E
330
17
100
AcDbEntity
  8
0
100
AcDbDimension
280
0
  2
*D2
  3
Standard
 10
-900.0
 20
580.0
 30
0.0
 11
-575.0
 21
580.0
 31
0.0
 70
32
 71
5
  1
<>
100
AcDbAlignedDimension
 13
-900.0
 23
550.0
 33
0.0
 14
-250.0
 24
550.0
 34
0.0
 50
0.0
100
AcDbRotatedDimension
1001
ACAD
1000
DSTYLE
1002
{
1070
176
1070
1
1070
177
1070
1
1070
77
1070
0
1070
290
1070
1
1070
44
1040
7.0
1070
49
1040
7.0
1070
140
1040
14.0
1070
41
1040
6.0
1070
173
1070
0
1070
142
1040
0.0
1070
342
1005
3F
1002
}
  0
DIMENSION
  5
5E
330
17
100
AcDbEntity
  8
0
100
AcDbDimension
280
0
  2
*D3
  3
Standard
 10
-205.0
 20
0.0
 30
0.0
 11
-205.0
 21
275.0
 31
0.0
 70
32
 71
5
  1
<>
100
AcDbAlignedDimension
 13
-175.0
 23
0.0
 33
0.0
 14
-175.0
 24
550.0
 34
0.0
 50
90.0
100
AcDbRotatedDimension
1001
ACAD
1000
DSTYLE
1002
{
1070
176
1070
1
1070
177
1070
1
1070
77
1070
0
1070
290
1070
1
1070
44
1040
7.0
1070
49
1040
7.0
1070
140
1040
14.0
1070
41
1040
6.0
1070
173
1070
0
1070
142
1040
0.0
1070
342
1005
3F
1002
}
  0
MTEXT
  5
6E
330
17
100
AcDbEntity
  8
0
100
AcDbMText
 10
-825.0
 20
-40.0
 30
0.0
 40
24.0
 71
1
  1
Left Board
  7
Calibri
  0
INSERT
  5
77
330
17
100
AcDbEntity
  8
0
100
AcDbBlockReference
  2
elevational_view_002
 10
800.0
 20
0.0
 30
0.0
  0
INSERT
  5
79
330
17
100
AcDbEntity
  8
0
100
AcDbBlockReference
  2
side_view_002
 10
1525.0
 20
0.0
 30
0.0
  0
DIMENSION
  5
7B
330
17
100
AcDbEntity
  8
0
100
AcDbDimension
280
0
  2
*D4
  3
Standard
 10
770.0
 20
0.0
 30
0.0
 11
770.0
 21
275.0
 31
0.0
 70
32
 71
5
  1
<>
100
AcDbAlignedDimension
 13
800.0
 23
0.0
 33
0.0
 14
800.0
 24
550.0
 34
0.0
 50
90.0
100
AcDbRotatedDimension
1001
ACAD
1000
DSTYLE
1002
{
1070
176
1070
1
1070
177
1070
1
1070
77
1070
0
1070
290
1070
1
1070
44
1040
7.0
1070
49
1040
7.0
1070
140
1040
14.0
1070
41
1040
6.0
1070
173
1070
0
1070
142
1040
0.0
1070
342
1005
3F
1002
}
  0
DIMENSION
  5
8B
330
17
100
AcDbEntity
  8
0
100
AcDbDimension
280
0
  2
*D5
  3
Standard
 10
800.0
 20
580.0
 30
0.0
 11
1125.0
 21
580.0
 31
0.0
 70
32
 71
5
  1
<>
100
AcDbAlignedDimension
 13
800.0
 23
550.0
 33
0.0
 14
1450.0
 24
550.0
 34
0.0
 50
0.0
100
AcDbRotatedDimension
1001
ACAD
1000
DSTYLE
1002
{
1070
176
1070
1
1070
177
1070
1
1070
77
1070
0
1070
290
1070
1
1070
44
1040
7.0
1070
49
1040
7.0
1070
140
1040
14.0
1070
41
1040
6.0
1070
173
1070
0
1070
142
1040
0.0
1070
342
1005
3F
1002
}
  0
DIMENSION
  5
9B
330
17
100
AcDbEntity
  8
0
100
AcDbDimension
280
0
  2
*D6
  3
Standard
 10
1495.0
 20
0.0
 30
0.0
 11
1495.0
 21
275.0
 31
0.0
 70
32
 71
5
  1
<>
100
AcDbAlignedDimension
 13
1525.0
 23
0.0
 33
0.0
 14
1525.0
 24
550.0
 34
0.0
 50
90.0
100
AcDbRotatedDimension
1001
ACAD
1000
DSTYLE
1002
{
1070
176
1070
1
1070
177
1070
1
1070
77
1070
0
1070
290
1070
1
1070
44
1040
7.0
1070
49
1040
7.0
1070
140
1040
14.0
1070
41
1040
6.0
1070
173
1070
0
1070
142
1040
0.0
1070
342
1005
3F
1002
}
  0
MTEXT
  5
AB
330
17
100
AcDbEntity
  8
0
100
AcDbMText
 10
875.0
 20
-40.0
 30
0.0
 40
24.0
 71
1
  1
Right panel
  7
Calibri
  0
INSERT
  5
B4
330
17
100
AcDbEntity
  8
0
100
AcDbBlockReference
  2
elevational_view_003
 10
0.0
 20
0.0
 30
0.0
  0
INSERT
  5
B6
330
17
100
AcDbEntity
  8
0
100
AcDbBlockReference
  2
side_view_003
 10
439.0
 20
0.0
 30
0.0
  0
DIMENSION
  5
B8
330
17
100
AcDbEntity
  8
0
100
AcDbDimension
280
0
  2
*D7
  3
Standard
 10
-30.0
 20
0.0
 30
0.0
 11
-30.0
 21
275.0
 31
0.0
 70
32
 71
5
  1
<>
100
AcDbAlignedDimension
 13
0.0
 23
0.0
 33
0.0
 14
0.0
 24
550.0
 34
0.0
 50
90.0
100
AcDbRotatedDimension
1001
ACAD
1000
DSTYLE
1002
{
1070
176
1070
1
1070
177
1070
1
1070
77
1070
0
1070
290
1070
1
1070
44
1040
7.0
1070
49
1040
7.0
1070
140
1040
14.0
1070
41
1040
6.0
1070
173
1070
0
1070
142
1040
0.0
1070
342
1005
3F
1002
}
  0
DIMENSION
  5
C8
330
17
100
AcDbEntity
  8
0
100
AcDbDimension
280
0
  2
*D8
  3
Standard
 10
0.0
 20
580.0
 30
0.0
 11
182.0
 21
580.0
 31
0.0
 70
32
 71
5
  1
<>
100
AcDbAlignedDimension
 13
0.0
 23
550.0
 33
0.0
 14
364.0
 24
550.0
 34
0.0
 50
0.0
100
AcDbRotatedDimension
1001
ACAD
1000
DSTYLE
1002
{
1070
176
1070
1
1070
177
1070
1
1070
77
1070
0
1070
290
1070
1
1070
44
1040
7.0
1070
49
1040
7.0
1070
140
1040
14.0
1070
41
1040
6.0
1070
173
1070
0
1070
142
1040
0.0
1070
342
1005
3F
1002
}
  0
DIMENSION
  5
D8
330
17
100
AcDbEntity
  8
0
100
AcDbDimension
280
0
  2
*D9
  3
Standard
 10
409.0
 20
0.0
 30
0.0
 11
409.0
 21
275.0
 31
0.0
 70
32
 71
5
  1
<>
100
AcDbAlignedDimension
 13
439.0
 23
0.0
 33
0.0
 14
439.0
 24
550.0
 34
0.0
 50
90.0
100
AcDbRotatedDimension
1001
ACAD
1000
DSTYLE
1002
{
1070
176
1070
1
1070
177
1070
1
1070
77
1070
0
1070
290
1070
1
1070
44
1040
7.0
1070
49
1040
7.0
1070
140
1040
14.0
1070
41
1040
6.0
1070
173
1070
0
1070
142
1040
0.0
1070
342
1005
3F
1002
}
  0
MTEXT
  5
E8
330
17
100
AcDbEntity
  8
0
100
AcDbMText
 10
75.0
 20
-40.0
 30
0.0
 40
24.0
 71
1
  1
Floor
  7
Calibri
  0
INSERT
  5
F1
330
17
100
AcDbEntity
  8
0
100
AcDbBlockReference
  2
elevational_view_004
 10
1700.0
 20
0.0
 30
0.0
  0
INSERT
  5
F3
330
17
100
AcDbEntity
  8
0
100
AcDbBlockReference
  2
side_view_004
 10
2412.0
 20
0.0
 30
0.0
  0
DIMENSION
  5
F5
330
17
100
AcDbEntity
  8
0
100
AcDbDimension
280
0
  2
*D10
  3
Standard
 10
1670.0
 20
0.0
 30
0.0
 11
1670.0
 21
187.0
 31
0.0
 70
32
 71
5
  1
<>
100
AcDbAlignedDimension
 13
1700.0
 23
0.0
 33
0.0
 14
1700.0
 24
374.0
 34
0.0
 50
90.0
100
AcDbRotatedDimension
1001
ACAD
1000
DSTYLE
1002
{
1070
176
1070
1
1070
177
1070
1
1070
77
1070
0
1070
290
1070
1
1070
44
1040
7.0
1070
49
1040
7.0
1070
140
1040
14.0
1070
41
1040
6.0
1070
173
1070
0
1070
142
1040
0.0
1070
342
1005
3F
1002
}
  0
DIMENSION
  5
105
330
17
100
AcDbEntity
  8
0
100
AcDbDimension
280
0
  2
*D11
  3
Standard
 10
1700.0
 20
404.0
 30
0.0
 11
2018.5
 21
404.0
 31
0.0
 70
32
 71
5
  1
<>
100
AcDbAlignedDimension
 13
1700.0
 23
374.0
 33
0.0
 14
2337.0
 24
374.0
 34
0.0
 50
0.0
100
AcDbRotatedDimension
1001
ACAD
1000
DSTYLE
1002
{
1070
176
1070
1
1070
177
1070
1
1070
77
1070
0
1070
290
1070
1
1070
44
1040
7.0
1070
49
1040
7.0
1070
140
1040
14.0
1070
41
1040
6.0
1070
173
1070
0
1070
142
1040
0.0
1070
342
1005
3F
1002
}
  0
DIMENSION
  5
115
330
17
100
AcDbEntity
  8
0
100
AcDbDimension
280
0
  2
*D12
  3
Standard
 10
2382.0
 20
0.0
 30
0.0
 11
2382.0
 21
187.0
 31
0.0
 70
32
 71
5
  1
<>
100
AcDbAlignedDimension
 13
2412.0
 23
0.0
 33
0.0
 14
2412.0
 24
374.0
 34
0.0
 50
90.0
100
AcDbRotatedDimension
1001
ACAD
1000
DSTYLE
1002
{
1070
176
1070
1
1070
177
1070
1
1070
77
1070
0
1070
290
1070
1
1070
44
1040
7.0
1070
49
1040
7.0
1070
140
1040
14.0
1070
41
1040
6.0
1070
173
1070
0
1070
142
1040
0.0
1070
342
1005
3F
1002
}
  0
MTEXT
  5
125
330
17
100
AcDbEntity
  8
0
100
AcDbMText
 10
1775.0
 20
-40.0
 30
0.0
 40
24.0
 71
1
  1
Thin back plate
  7
Calibri
  0
INSERT
  5
12E
330
17
100
AcDbEntity
  8
0
100
AcDbBlockReference
  2
elevational_view_005
 10
2600.0
 20
0.0
 30
0.0
  0
INSERT
  5
130
330
17
100
AcDbEntity
  8
0
100
AcDbBlockReference
  2
side_view_005
 10
2755.0
 20
0.0
 30
0.0
  0
DIMENSION
  5
132
330
17
100
AcDbEntity
  8
0
100
AcDbDimension
280
0
  2
*D13
  3
Standard
 10
2570.0
 20
0.0
 30
0.0
 11
2570.0
 21
182.0
 31
0.0
 70
32
 71
5
  1
<>
100
AcDbAlignedDimension
 13
2600.0
 23
0.0
 33
0.0
 14
2600.0
 24
364.0
 34
0.0
 50
90.0
100
AcDbRotatedDimension
1001
ACAD
1000
DSTYLE
1002
{
1070
176
1070
1
1070
177
1070
1
1070
77
1070
0
1070
290
1070
1
1070
44
1040
7.0
1070
49
1040
7.0
1070
140
1040
14.0
1070
41
1040
6.0
1070
173
1070
0
1070
142
1040
0.0
1070
342
1005
3F
1002
}
  0
DIMENSION
  5
142
330
17
100
AcDbEntity
  8
0
100
AcDbDimension
280
0
  2
*D14
  3
Standard
 10
2600.0
 20
394.0
 30
0.0
 11
2640.0
 21
394.0
 31
0.0
 70
32
 71
5
  1
<>
100
AcDbAlignedDimension
 13
2600.0
 23
364.0
 33
0.0
 14
2680.0
 24
364.0
 34
0.0
 50
0.0
100
AcDbRotatedDimension
1001
ACAD
1000
DSTYLE
1002
{
1070
176
1070
1
1070
177
1070
1
1070
77
1070
0
1070
290
1070
1
1070
44
1040
7.0
1070
49
1040
7.0
1070
140
1040
14.0
1070
41
1040
6.0
1070
173
1070
0
1070
142
1040
0.0
1070
342
1005
3F
1002
}
  0
DIMENSION
  5
152
330
17
100
AcDbEntity
  8
0
100
AcDbDimension
280
0
  2
*D15
  3
Standard
 10
2725.0
 20
0.0
 30
0.0
 11
2725.0
 21
182.0
 31
0.0
 70
32
 71
5
  1
<>
100
AcDbAlignedDimension
 13
2755.0
 23
0.0
 33
0.0
 14
2755.0
 24
364.0
 34
0.0
 50
90.0
100
AcDbRotatedDimension
1001
ACAD
1000
DSTYLE
1002
{
1070
176
1070
1
1070
177
1070
1
1070
77
1070
0
1070
290
1070
1
1070
44
1040
7.0
1070
49
1040
7.0
1070
140
1040
14.0
1070
41
1040
6.0
1070
173
1070
0
1070
142
1040
0.0
1070
342
1005
3F
1002
}
  0
MTEXT
  5
162
330
17
100
AcDbEntity
  8
0
100
AcDbMText
 10
2675.0
 20
-40.0
 30
0.0
 40
24.0
 71
1
  1
Back Pull Bar
  7
Calibri
  0
INSERT
  5
16B
330
17
100
AcDbEntity
  8
0
100
AcDbBlockReference
  2
elevational_view_006
 10
3000.0
 20
0.0
 30
0.0
  0
INSERT
  5
16D
330
17
100
AcDbEntity
  8
0
100
AcDbBlockReference
  2
side_view_006
 10
3439.0
 20
0.0
 30
0.0
  0
DIMENSION
  5
16F
330
17
100
AcDbEntity
  8
0
100
AcDbDimension
280
0
  2
*D16
  3
Standard
 10
2970.0
 20
0.0
 30
0.0
 11
2970.0
 21
40.0
 31
0.0
 70
32
 71
5
  1
<>
100
AcDbAlignedDimension
 13
3000.0
 23
0.0
 33
0.0
 14
3000.0
 24
80.0
 34
0.0
 50
90.0
100
AcDbRotatedDimension
1001
ACAD
1000
DSTYLE
1002
{
1070
176
1070
1
1070
177
1070
1
1070
77
1070
0
1070
290
1070
1
1070
44
1040
7.0
1070
49
1040
7.0
1070
140
1040
14.0
1070
41
1040
6.0
1070
173
1070
0
1070
142
1040
0.0
1070
342
1005
3F
1002
}
  0
DIMENSION
  5
17F
330
17
100
AcDbEntity
  8
0
100
AcDbDimension
280
0
  2
*D17
  3
Standard
 10
3000.0
 20
110.0
 30
0.0
 11
3182.0
 21
110.0
 31
0.0
 70
32
 71
5
  1
<>
100
AcDbAlignedDimension
 13
3000.0
 23
80.0
 33
0.0
 14
3364.0
 24
80.0
 34
0.0
 50
0.0
100
AcDbRotatedDimension
1001
ACAD
1000
DSTYLE
1002
{
1070
176
1070
1
1070
177
1070
1
1070
77
1070
0
1070
290
1070
1
1070
44
1040
7.0
1070
49
1040
7.0
1070
140
1040
14.0
1070
41
1040
6.0
1070
173
1070
0
1070
142
1040
0.0
1070
342
1005
3F
1002
}
  0
DIMENSION
  5
18F
330
17
100
AcDbEntity
  8
0
100
AcDbDimension
280
0
  2
*D18
  3
Standard
 10
3409.0
 20
0.0
 30
0.0
 11
3409.0
 21
40.0
 31
0.0
 70
32
 71
5
  1
<>
100
AcDbAlignedDimension
 13
3439.0
 23
0.0
 33
0.0
 14
3439.0
 24
80.0
 34
0.0
 50
90.0
100
AcDbRotatedDimension
1001
ACAD
1000
DSTYLE
1002
{
1070
176
1070
1
1070
177
1070
1
1070
77
1070
0
1070
290
1070
1
1070
44
1040
7.0
1070
49
1040
7.0
1070
140
1040
14.0
1070
41
1040
6.0
1070
173
1070
0
1070
142
1040
0.0
1070
342
1005
3F
1002
}
  0
MTEXT
  5
19F
330
17
100
AcDbEntity
  8
0
100
AcDbMText
 10
3075.0
 20
-40.0
 30
0.0
 40
24.0
 71
1
  1
Cover board-Horizontal dress
  7
Calibri
  0
INSERT
  5
1A8
330
17
100
AcDbEntity
  8
0
100
AcDbBlockReference
  2
elevational_view_007
 10
3700.0
 20
0.0
 30
0.0
  0
INSERT
  5
1AA
330
17
100
AcDbEntity
  8
0
100
AcDbBlockReference
  2
side_view_007
 10
4139.0
 20
0.0
 30
0.0
  0
DIMENSION
  5
1AC
330
17
100
AcDbEntity
  8
0
100
AcDbDimension
280
0
  2
*D19
  3
Standard
 10
3670.0
 20
0.0
 30
0.0
 11
3670.0
 21
259.0
 31
0.0
 70
32
 71
5
  1
<>
100
AcDbAlignedDimension
 13
3700.0
 23
0.0
 33
0.0
 14
3700.0
 24
518.0
 34
0.0
 50
90.0
100
AcDbRotatedDimension
1001
ACAD
1000
DSTYLE
1002
{
1070
176
1070
1
1070
177
1070
1
1070
77
1070
0
1070
290
1070
1
1070
44
1040
7.0
1070
49
1040
7.0
1070
140
1040
14.0
1070
41
1040
6.0
1070
173
1070
0
1070
142
1040
0.0
1070
342
1005
3F
1002
}
  0
DIMENSION
  5
1BC
330
17
100
AcDbEntity
  8
0
100
AcDbDimension
280
0
  2
*D20
  3
Standard
 10
3700.0
 20
548.0
 30
0.0
 11
3882.0
 21
548.0
 31
0.0
 70
32
 71
5
  1
<>
100
AcDbAlignedDimension
 13
3700.0
 23
518.0
 33
0.0
 14
4064.0
 24
518.0
 34
0.0
 50
0.0
100
AcDbRotatedDimension
1001
ACAD
1000
DSTYLE
1002
{
1070
176
1070
1
1070
177
1070
1
1070
77
1070
0
1070
290
1070
1
1070
44
1040
7.0
1070
49
1040
7.0
1070
140
1040
14.0
1070
41
1040
6.0
1070
173
1070
0
1070
142
1040
0.0
1070
342
1005
3F
1002
}
  0
DIMENSION
  5
1CC
330
17
100
AcDbEntity
  8
0
100
AcDbDimension
280
0
  2
*D21
  3
Standard
 10
4109.0
 20
0.0
 30
0.0
 11
4109.0
 21
259.0
 31
0.0
 70
32
 71
5
  1
<>
100
AcDbAlignedDimension
 13
4139.0
 23
0.0
 33
0.0
 14
4139.0
 24
518.0
 34
0.0
 50
90.0
100
AcDbRotatedDimension
1001
ACAD
1000
DSTYLE
1002
{
1070
176
1070
1
1070
177
1070
1
1070
77
1070
0
1070
290
1070
1
1070
44
1040
7.0
1070
49
1040
7.0
1070
140
1040
14.0
1070
41
1040
6.0
1070
173
1070
0
1070
142
1040
0.0
1070
342
1005
3F
1002
}
  0
MTEXT
  5
1DC
330
17
100
AcDbEntity
  8
0
100
AcDbMText
 10
3775.0
 20
-40.0
 30
0.0
 40
24.0
 71
1
  1
Active Layer Board
  7
Calibri
  0
INSERT
  5
1E5
330
17
100
AcDbEntity
  8
0
100
AcDbBlockReference
  2
elevational_view_008
 10
4600.0
 20
0.0
 30
0.0
  0
INSERT
  5
1E7
330
17
100
AcDbEntity
  8
0
100
AcDbBlockReference
  2
side_view_008
 10
5072.0
 20
0.0
 30
0.0
  0
DIMENSION
  5
1E9
330
17
100
AcDbEntity
  8
0
100
AcDbDimension
280
0
  2
*D22
  3
Standard
 10
4570.0
 20
0.0
 30
0.0
 11
4555.375
 21
9.0
 31
0.0
 70
32
 71
5
  1
<>
100
AcDbAlignedDimension
 13
4600.0
 23
0.0
 33
0.0
 14
4600.0
 24
18.0
 34
0.0
 50
90.0
100
AcDbRotatedDimension
1001
ACAD
1000
DSTYLE
1002
{
1070
176
1070
1
1070
177
1070
1
1070
77
1070
0
1070
290
1070
1
1070
44
1040
7.0
1070
49
1040
7.0
1070
140
1040
14.0
1070
41
1040
6.0
1070
173
1070
0
1070
142
1040
0.0
1070
342
1005
3F
1002
}
  0
DIMENSION
  5
1F8
330
17
100
AcDbEntity
  8
0
100
AcDbDimension
280
0
  2
*D23
  3
Standard
 10
4600.0
 20
48.0
 30
0.0
 11
4798.5
 21
48.0
 31
0.0
 70
32
 71
5
  1
<>
100
AcDbAlignedDimension
 13
4600.0
 23
18.0
 33
0.0
 14
4997.0
 24
18.0
 34
0.0
 50
0.0
100
AcDbRotatedDimension
1001
ACAD
1000
DSTYLE
1002
{
1070
176
1070
1
1070
177
1070
1
1070
77
1070
0
1070
290
1070
1
1070
44
1040
7.0
1070
49
1040
7.0
1070
140
1040
14.0
1070
41
1040
6.0
1070
173
1070
0
1070
142
1040
0.0
1070
342
1005
3F
1002
}
  0
DIMENSION
  5
208
330
17
100
AcDbEntity
  8
0
100
AcDbDimension
280
0
  2
*D24
  3
Standard
 10
5042.0
 20
0.0
 30
0.0
 11
5027.375
 21
9.0
 31
0.0
 70
32
 71
5
  1
<>
100
AcDbAlignedDimension
 13
5072.0
 23
0.0
 33
0.0
 14
5072.0
 24
18.0
 34
0.0
 50
90.0
100
AcDbRotatedDimension
1001
ACAD
1000
DSTYLE
1002
{
1070
176
1070
1
1070
177
1070
1
1070
77
1070
0
1070
290
1070
1
1070
44
1040
7.0
1070
49
1040
7.0
1070
140
1040
14.0
1070
41
1040
6.0
1070
173
1070
0
1070
142
1040
0.0
1070
342
1005
3F
1002
}
  0
MTEXT
  5
217
330
17
100
AcDbEntity
  8
0
100
AcDbMText
 10
4675.0
 20
-40.0
 30
0.0
 40
24.0
 71
1
  1
Cover Doors
  7
Calibri
  0
ENDSEC
  0
SECTION
  2
OBJECTS
  0
DICTIONARY
  5
A
330
0
100
AcDbDictionary
281
1
  3
ACAD_COLOR
350
B
  3
ACAD_GROUP
350
C
  3
ACAD_LAYOUT
350
D
  3
ACAD_MATERIAL
350
E
  3
ACAD_MLEADERSTYLE
350
F
  3
ACAD_MLINESTYLE
350
10
  3
ACAD_PLOTSETTINGS
350
11
  3
ACAD_PLOTSTYLENAME
350
12
  3
ACAD_SCALELIST
350
14
  3
ACAD_TABLESTYLE
350
15
  3
ACAD_VISUALSTYLE
350
16
  0
DICTIONARY
  5
B
330
A
100
AcDbDictionary
281
1
  0
DICTIONARY
  5
C
330
A
100
AcDbDictionary
281
1
  0
DICTIONARY
  5
D
330
A
100
AcDbDictionary
281
1
  3
Model
350
1A
  3
Layout1
350
1E
  0
DICTIONARY
  5
E
330
A
100
AcDbDictionary
281
1
  3
ByBlock
350
1F
  3
ByLayer
350
20
  3
Global
350
21
  0
DICTIONARY
  5
F
330
A
100
AcDbDictionary
281
1
  3
Standard
350
2C
  0
DICTIONARY
  5
10
330
A
100
AcDbDictionary
281
1
  3
Standard
350
22
  0
DICTIONARY
  5
11
330
A
100
AcDbDictionary
281
1
  0
ACDBDICTIONARYWDFLT
  5
12
330
A
100
AcDbDictionary
281
1
  3
Normal
350
13
100
AcDbDictionaryWithDefault
340
13
  0
ACDBPLACEHOLDER
  5
13
330
12
  0
DICTIONARY
  5
14
330
A
100
AcDbDictionary
281
1
  0
DICTIONARY
  5
15
330
A
100
AcDbDictionary
281
1
  0
DICTIONARY
  5
16
330
A
100
AcDbDictionary
281
1
  0
LAYOUT
  5
1A
330
D
100
AcDbPlotSettings
  1

  2
Adobe PDF
  4
A4
  6

 40
3.175
 41
3.175
 42
3.175
 43
3.175
 44
209.91
 45
297.03
 46
0.0
 47
0.0
 48
0.0
 49
0.0
140
0.0
141
0.0
142
1.0
143
1.0
 70
1024
 72
0
 73
1
 74
5
  7

 75
16
 76
0
 77
2
 78
300
147
1.0
148
0.0
149
0.0
100
AcDbLayout
  1
Model
 70
1
 71
0
 10
-3.175
 20
-3.175
 11
293.857
 21
206.735
 12
0.0
 22
0.0
 32
0.0
 14
29.068
 24
20.356
 34
0.0
 15
261.614
 25
183.204
 35
0.0
146
0.0
 13
0.0
 23
0.0
 33
0.0
 16
1.0
 26
0.0
 36
0.0
 17
0.0
 27
1.0
 37
0.0
 76
1
330
17
  0
LAYOUT
  5
1E
330
D
100
AcDbPlotSettings
  1

  2
Adobe PDF
  4
A4
  6

 40
3.175
 41
3.175
 42
3.175
 43
3.175
 44
209.91
 45
297.03
 46
0.0
 47
0.0
 48
0.0
 49
0.0
140
0.0
141
0.0
142
1.0
143
1.0
 70
0
 72
0
 73
1
 74
5
  7

 75
16
 76
0
 77
2
 78
300
147
1.0
148
0.0
149
0.0
100
AcDbLayout
  1
Layout1
 70
1
 71
1
 10
-3.175
 20
-3.175
 11
293.857
 21
206.735
 12
0.0
 22
0.0
 32
0.0
 14
29.068
 24
20.356
 34
0.0
 15
261.614
 25
183.204
 35
0.0
146
0.0
 13
0.0
 23
0.0
 33
0.0
 16
1.0
 26
0.0
 36
0.0
 17
0.0
 27
1.0
 37
0.0
 76
1
330
1B
  0
MATERIAL
  5
1F
102
{ACAD_REACTORS
330
E
102
}
330
E
100
AcDbMaterial
  1
ByBlock
  2

 70
0
 40
1.0
 71
1
 41
1.0
 91
-1023410177
 42
1.0
 72
1
  3

 73
1
 74
1
 75
1
 44
0.5
 73
0
 45
1.0
 46
1.0
 77
1
  4

 78
1
 79
1
170
1
 48
1.0
171
1
  6

172
1
173
1
174
1
140
1.0
141
1.0
175
1
  7

176
1
177
1
178
1
143
1.0
179
1
  8

270
1
271
1
272
1
145
1.0
146
1.0
273
1
  9

274
1
275
1
276
1
 42
1.0
 72
1
  3

 73
1
 74
1
 75
1
 94
63
  0
MATERIAL
  5
20
102
{ACAD_REACTORS
330
E
102
}
330
E
100
AcDbMaterial
  1
ByLayer
  2

 70
0
 40
1.0
 71
1
 41
1.0
 91
-1023410177
 42
1.0
 72
1
  3

 73
1
 74
1
 75
1
 44
0.5
 73
0
 45
1.0
 46
1.0
 77
1
  4

 78
1
 79
1
170
1
 48
1.0
171
1
  6

172
1
173
1
174
1
140
1.0
141
1.0
175
1
  7

176
1
177
1
178
1
143
1.0
179
1
  8

270
1
271
1
272
1
145
1.0
146
1.0
273
1
  9

274
1
275
1
276
1
 42
1.0
 72
1
  3

 73
1
 74
1
 75
1
 94
63
  0
MATERIAL
  5
21
102
{ACAD_REACTORS
330
E
102
}
330
E
100
AcDbMaterial
  1
Global
  2

 70
0
 40
1.0
 71
1
 41
1.0
 91
-1023410177
 42
1.0
 72
1
  3

 73
1
 74
1
 75
1
 44
0.5
 73
0
 45
1.0
 46
1.0
 77
1
  4

 78
1
 79
1
170
1
 48
1.0
171
1
  6

172
1
173
1
174
1
140
1.0
141
1.0
175
1
  7

176
1
177
1
178
1
143
1.0
179
1
  8

270
1
271
1
272
1
145
1.0
146
1.0
273
1
  9

274
1
275
1
276
1
 42
1.0
 72
1
  3

 73
1
 74
1
 75
1
 94
63
  0
MLINESTYLE
  5
22
102
{ACAD_REACTORS
330
10
102
}
330
10
100
AcDbMlineStyle
  2
Standard
 70
0
  3

 62
256
 51
90.0
 52
90.0
 71
2
 49
0.5
 62
256
  6
BYLAYER
 49
-0.5
 62
256
  6
BYLAYER
  0
MLEADERSTYLE
  5
2C
102
{ACAD_REACTORS
330
F
102
}
330
F
100
AcDbMLeaderStyle
179
2
170
2
171
1
172
0
 90
2
 40
0.0
 41
0.0
173
1
 91
-1056964608
 92
-2
290
1
 42
2.0
291
1
 43
8.0
  3
Standard
 44
4.0
300

342
29
174
1
175
1
176
0
178
1
 93
-1056964608
 45
4.0
292
0
297
0
 46
4.0
 94
-1056964608
 47
1.0
 49
0.0
140
1.0
294
1
141
0.0
177
0
142
1.0
295
0
296
0
143
3.75
271
0
272
9
272
9
  0
ENDSEC
  0
EOF
